<svg id="svg" version="1.1" xmlns="http://www.w3.org/2000/svg" xmlns:xlink="http://www.w3.org/1999/xlink" width="400" height="400" viewBox="0, 0, 400,400"><g id="svgg"><path id="path0" d="M298.818 150.100 C 298.394 150.815,297.897 151.580,297.712 151.800 C 297.261 152.339,291.903 160.252,291.400 161.124 C 291.180 161.505,290.550 162.439,290.000 163.200 C 289.450 163.961,288.820 164.892,288.600 165.269 C 288.169 166.008,282.915 173.724,280.612 177.000 C 279.839 178.100,277.082 182.150,274.486 186.000 C 261.965 204.570,263.486 202.771,261.082 201.853 C 260.142 201.494,258.685 201.200,257.844 201.200 C 257.003 201.200,255.119 200.937,253.657 200.616 C 248.023 199.378,246.378 199.137,239.400 198.523 C 226.712 197.407,214.053 197.861,203.600 199.807 C 201.730 200.155,199.054 200.606,197.653 200.810 C 196.252 201.014,194.902 201.343,194.653 201.542 C 194.099 201.984,189.941 203.200,188.982 203.200 C 188.600 203.200,187.548 203.536,186.644 203.946 C 185.740 204.356,184.166 205.064,183.147 205.518 C 181.509 206.248,181.274 206.513,181.125 207.796 C 180.904 209.683,181.184 209.798,183.278 208.686 C 184.789 207.882,188.604 206.572,195.220 204.583 C 196.221 204.282,198.021 203.859,199.220 203.642 C 200.419 203.424,203.110 202.894,205.200 202.462 C 207.295 202.030,211.603 201.568,214.800 201.434 C 217.990 201.300,221.660 200.984,222.957 200.732 C 224.765 200.380,226.484 200.392,230.346 200.783 C 233.114 201.064,238.353 201.441,241.989 201.621 C 245.625 201.802,249.950 202.237,251.600 202.588 C 253.250 202.939,255.770 203.399,257.200 203.609 C 258.630 203.820,260.322 204.174,260.960 204.396 C 262.983 205.101,263.741 204.884,264.796 203.297 C 265.344 202.474,265.884 201.710,265.996 201.600 C 266.108 201.490,266.380 201.112,266.600 200.760 C 267.675 199.039,269.346 196.578,269.560 196.400 C 269.768 196.227,273.635 190.554,281.489 178.900 C 282.638 177.195,283.718 175.619,283.889 175.398 C 284.060 175.177,285.833 172.567,287.830 169.598 C 294.324 159.941,295.777 157.803,295.990 157.600 C 297.017 156.621,301.202 149.783,301.038 149.354 C 300.670 148.396,299.618 148.749,298.818 150.100 M83.831 229.947 C 77.486 231.805,76.239 232.472,78.195 232.963 C 79.596 233.315,80.895 235.461,80.637 237.000 C 79.841 241.761,78.653 247.908,76.851 256.600 C 76.166 259.900,75.158 264.850,74.610 267.600 C 74.063 270.350,73.431 273.469,73.207 274.531 C 71.961 280.437,73.654 283.200,78.520 283.200 C 82.205 283.200,86.032 281.132,88.615 277.745 C 89.961 275.980,89.623 275.573,87.969 276.965 C 83.218 280.962,81.427 279.098,83.006 271.800 C 83.339 270.260,83.951 267.380,84.366 265.400 C 86.163 256.823,86.909 253.299,87.244 251.800 C 87.441 250.920,87.781 249.300,88.000 248.200 C 88.219 247.100,88.559 245.480,88.756 244.600 C 88.953 243.720,89.491 241.200,89.951 239.000 C 90.412 236.800,91.061 233.740,91.394 232.200 C 92.484 227.163,92.907 227.289,83.831 229.947 M48.800 230.040 C 42.151 231.787,38.530 233.768,34.048 238.114 C 21.164 250.606,21.930 273.673,35.456 280.527 C 43.199 284.451,53.369 284.533,61.442 280.738 C 63.265 279.882,63.993 278.497,63.998 275.877 C 63.999 275.260,64.194 273.985,64.430 273.045 C 64.667 272.105,64.802 270.721,64.730 269.970 L 64.600 268.604 63.358 270.602 C 62.675 271.701,61.237 274.014,60.162 275.742 C 56.850 281.066,54.925 282.376,50.394 282.391 C 40.780 282.424,35.790 274.830,35.811 260.200 C 35.821 253.555,35.937 252.649,37.481 247.200 C 40.684 235.896,49.942 228.652,58.486 230.764 C 62.789 231.828,64.076 233.470,66.275 240.699 C 67.577 244.980,67.805 245.158,68.325 242.300 C 68.535 241.145,68.908 239.109,69.153 237.776 C 70.038 232.975,69.775 232.509,65.400 231.120 C 60.710 229.631,52.412 229.091,48.800 230.040 M213.086 231.047 C 212.950 231.183,213.407 232.002,214.102 232.867 C 215.520 234.631,215.800 237.754,214.904 241.800 C 214.660 242.900,214.255 244.970,214.004 246.400 C 213.752 247.830,213.391 249.720,213.200 250.600 C 213.009 251.480,212.646 253.370,212.392 254.800 C 211.447 260.121,211.128 261.840,210.795 263.400 C 210.607 264.280,210.248 266.170,209.996 267.600 C 207.988 279.026,207.557 280.041,204.192 281.257 C 201.736 282.145,202.674 282.400,208.400 282.400 C 214.137 282.400,215.065 282.146,212.590 281.251 C 209.908 280.281,209.453 277.886,210.793 271.800 C 210.987 270.920,211.351 269.030,211.603 267.600 C 211.855 266.170,212.211 264.190,212.395 263.200 C 212.837 260.821,213.424 257.596,213.995 254.400 C 214.251 252.970,214.616 250.990,214.806 250.000 C 214.996 249.010,215.363 246.940,215.622 245.400 C 216.711 238.914,217.100 238.997,218.903 246.100 C 219.699 249.235,221.249 255.310,222.347 259.600 C 223.446 263.890,225.161 270.602,226.158 274.514 C 228.945 285.451,228.762 285.457,235.480 274.200 C 252.647 245.431,255.712 240.400,256.066 240.400 C 256.470 240.400,256.343 241.853,255.612 245.600 C 255.419 246.590,255.053 248.570,254.800 250.000 C 254.547 251.430,254.187 253.410,254.000 254.400 C 253.813 255.390,253.453 257.370,253.200 258.800 C 252.947 260.230,252.589 262.210,252.405 263.200 C 251.515 267.987,251.221 269.612,250.772 272.200 C 249.700 278.391,248.605 280.700,246.413 281.396 C 244.123 282.123,246.255 282.400,254.133 282.400 C 263.205 282.400,263.888 282.290,261.990 281.136 C 259.696 279.740,259.650 279.135,261.204 270.800 C 261.388 269.810,261.747 267.830,262.000 266.400 C 262.253 264.970,262.613 262.990,262.800 262.000 C 262.987 261.010,263.333 259.075,263.570 257.700 C 264.723 250.997,265.312 247.693,266.011 244.000 C 266.199 243.010,266.563 240.940,266.822 239.400 C 267.612 234.692,268.335 233.268,270.499 232.149 C 272.629 231.048,271.698 230.800,265.427 230.800 L 259.254 230.800 258.482 231.900 C 258.057 232.505,256.904 234.350,255.920 236.000 C 235.096 270.898,235.591 270.140,235.093 267.900 C 234.983 267.405,234.140 264.120,233.220 260.600 C 231.154 252.702,229.278 245.467,227.464 238.400 C 226.701 235.430,225.885 232.505,225.649 231.900 L 225.220 230.800 219.277 230.800 C 216.008 230.800,213.222 230.911,213.086 231.047 M333.874 238.985 C 329.168 243.735,328.728 244.024,324.400 245.213 L 321.800 245.928 324.200 245.970 C 327.954 246.036,327.892 245.856,326.400 252.400 C 326.224 253.170,325.886 254.700,325.649 255.800 C 325.411 256.900,324.844 259.510,324.390 261.600 C 323.935 263.690,323.373 266.300,323.141 267.400 C 322.909 268.500,322.560 270.120,322.366 271.000 C 320.340 280.171,321.461 283.195,326.889 283.199 C 330.166 283.201,332.974 281.841,335.966 278.802 C 339.295 275.421,339.290 274.346,335.956 276.996 C 331.032 280.911,330.122 278.613,332.396 268.000 C 332.844 265.910,333.386 263.300,333.600 262.200 C 333.814 261.100,334.335 258.580,334.757 256.600 C 335.178 254.620,335.642 252.370,335.786 251.600 C 336.858 245.872,336.707 246.014,341.733 246.006 C 347.228 245.998,347.003 245.049,341.468 244.886 C 336.927 244.751,337.132 245.132,338.400 239.200 C 339.719 233.030,339.772 233.033,333.874 238.985 M119.400 244.005 C 114.108 244.586,105.782 250.685,101.315 257.252 C 88.352 276.315,99.711 292.590,114.981 276.832 C 117.190 274.553,117.600 274.680,117.600 277.647 C 117.600 284.577,125.062 285.258,131.576 278.923 C 134.489 276.089,134.581 275.129,131.725 277.354 C 127.034 281.008,125.537 279.319,127.183 272.232 C 128.047 268.510,128.511 266.485,129.182 263.500 C 129.393 262.565,129.843 260.585,130.182 259.100 C 130.522 257.615,131.078 255.185,131.418 253.700 C 131.757 252.215,132.218 250.190,132.441 249.200 C 132.664 248.210,133.030 246.703,133.254 245.851 C 133.806 243.751,133.380 243.512,130.800 244.473 C 127.568 245.678,126.627 245.767,125.429 244.982 C 124.052 244.080,121.898 243.731,119.400 244.005 M156.000 244.015 C 154.790 244.153,153.440 244.405,153.000 244.576 C 147.429 246.734,144.800 250.254,144.800 255.555 C 144.800 260.077,145.670 261.342,154.133 269.119 C 159.293 273.862,158.653 281.089,152.973 282.225 C 151.280 282.564,149.924 281.361,149.280 278.949 C 148.994 277.877,148.582 276.328,148.365 275.506 C 147.135 270.841,141.937 270.268,139.722 274.551 C 137.496 278.855,142.927 283.205,150.515 283.195 C 166.155 283.175,171.481 271.228,160.165 261.549 C 152.007 254.571,150.264 248.529,155.526 245.467 C 157.890 244.092,158.640 244.806,160.818 250.508 C 162.834 255.785,169.200 255.914,169.200 250.677 C 169.200 245.962,163.624 243.148,156.000 244.015 M189.000 244.029 C 181.670 244.860,176.893 250.710,178.104 257.373 C 178.679 260.535,179.359 261.483,185.005 267.000 C 191.301 273.151,192.416 276.246,189.685 279.991 C 186.740 284.028,183.449 282.833,182.000 277.200 C 180.831 272.656,179.422 271.277,176.438 271.753 C 173.115 272.283,171.657 276.257,173.621 279.433 C 176.080 283.413,186.499 284.551,192.600 281.507 C 200.665 277.483,201.687 268.510,194.738 262.730 C 187.564 256.762,186.221 254.874,186.235 250.772 C 186.251 245.891,191.317 242.506,192.595 246.523 C 194.570 252.736,195.848 254.400,198.649 254.400 C 201.113 254.400,202.400 253.123,202.400 250.677 C 202.400 245.911,196.819 243.142,189.000 244.029 M309.032 244.617 C 306.165 245.807,305.627 245.826,303.800 244.800 C 293.842 239.207,274.400 257.727,274.400 272.806 C 274.400 285.045,285.083 286.769,294.562 276.061 C 295.688 274.789,296.000 274.996,296.000 277.013 C 296.000 284.937,305.604 285.364,311.450 277.699 C 312.887 275.815,312.412 275.690,310.209 277.373 C 305.976 280.603,304.300 279.547,305.391 274.335 C 306.532 268.881,307.148 266.113,308.400 260.800 C 309.324 256.880,309.580 255.755,310.400 252.000 C 310.664 250.790,311.046 249.080,311.249 248.200 C 312.413 243.139,312.449 243.198,309.032 244.617 M367.400 244.019 C 346.383 246.089,339.527 282.327,360.000 283.134 C 365.763 283.361,370.649 280.780,374.724 275.354 C 377.238 272.007,377.414 270.935,375.100 273.059 C 367.515 280.024,359.038 278.422,357.209 269.679 C 356.573 266.636,356.481 266.734,361.000 265.589 C 374.579 262.148,382.188 255.056,379.248 248.583 C 377.543 244.829,373.805 243.389,367.400 244.019 M120.088 246.224 C 122.961 247.203,123.228 247.698,122.553 250.800 C 122.242 252.230,121.792 254.300,121.553 255.400 C 121.315 256.500,120.975 258.030,120.799 258.800 C 120.326 260.868,119.800 263.303,118.814 268.000 C 117.807 272.794,117.421 273.544,115.086 275.241 C 108.504 280.025,104.626 277.633,104.646 268.800 C 104.677 254.978,112.446 243.620,120.088 246.224 M298.439 246.059 C 301.110 246.859,301.842 248.015,301.255 250.505 C 300.750 252.645,300.223 254.951,299.587 257.800 C 299.296 259.099,298.257 263.965,296.573 271.911 C 296.071 274.275,290.326 277.887,287.734 277.467 C 284.504 276.943,283.200 274.482,283.200 268.913 C 283.200 255.382,290.919 243.806,298.439 246.059 M372.030 246.634 C 374.282 249.036,373.145 254.887,369.659 258.841 C 366.859 262.017,356.800 266.444,356.800 264.500 C 356.800 254.407,367.524 241.827,372.030 246.634 " stroke="none" fill="#2f6979" fill-rule="evenodd"></path><path id="path1" d="M0.000 200.000 L 0.000 400.000 200.000 400.000 L 400.000 400.000 400.000 200.000 L 400.000 0.000 200.000 0.000 L 0.000 0.000 0.000 200.000 M177.238 105.032 C 177.368 109.855,177.698 114.790,177.970 116.000 C 180.004 125.050,181.972 127.954,181.995 121.941 C 182.006 118.958,185.035 114.324,188.338 112.239 C 198.194 106.017,209.945 114.971,206.481 126.064 C 205.242 130.032,200.663 135.200,198.386 135.200 C 198.027 135.200,197.599 135.335,197.434 135.500 C 197.269 135.665,196.474 135.999,195.667 136.241 L 194.200 136.683 195.326 137.141 C 196.625 137.670,202.468 137.702,205.400 137.197 C 208.240 136.707,211.481 135.852,211.834 135.500 C 211.998 135.335,212.399 135.200,212.723 135.200 C 213.311 135.200,214.188 134.835,219.308 132.457 C 223.795 130.373,223.590 131.242,218.503 135.861 C 206.792 146.494,196.143 158.414,189.309 168.540 C 188.589 169.607,188.000 170.544,188.000 170.622 C 188.000 170.701,187.532 171.447,186.960 172.282 C 186.388 173.117,185.753 174.160,185.550 174.600 C 185.346 175.040,184.543 176.480,183.764 177.800 C 181.679 181.335,178.600 187.832,177.601 190.802 C 177.120 192.231,176.592 193.580,176.427 193.800 C 176.262 194.020,175.715 195.945,175.211 198.077 C 173.923 203.531,173.247 203.595,171.827 198.400 C 171.436 196.970,170.887 195.170,170.607 194.400 C 170.326 193.630,169.882 191.920,169.620 190.600 C 169.358 189.280,168.875 187.030,168.546 185.600 C 168.217 184.170,167.774 181.693,167.562 180.095 C 167.350 178.497,167.002 176.730,166.788 176.169 C 166.575 175.607,166.396 174.215,166.392 173.074 C 166.387 171.933,166.123 168.840,165.804 166.200 C 164.721 157.221,165.336 139.366,167.021 130.889 C 167.340 129.287,167.600 127.385,167.600 126.661 C 167.600 125.937,167.846 124.458,168.146 123.373 C 168.447 122.288,169.001 119.960,169.377 118.200 C 169.753 116.440,170.245 114.460,170.470 113.800 C 170.694 113.140,171.032 111.970,171.219 111.200 C 172.098 107.583,173.249 104.117,174.857 100.248 C 175.485 98.735,176.000 97.145,176.000 96.715 C 176.000 96.268,176.214 96.004,176.500 96.099 C 176.870 96.222,177.062 98.547,177.238 105.032 M304.206 108.009 C 304.345 108.234,303.410 110.029,302.129 111.998 C 300.848 113.966,299.620 115.901,299.400 116.297 C 297.321 120.039,296.731 120.256,287.800 120.558 C 279.595 120.837,271.503 122.222,261.800 125.009 C 250.065 128.380,238.777 133.716,226.872 141.522 C 223.722 143.587,221.044 145.177,220.921 145.054 C 220.580 144.713,227.445 137.974,230.600 135.553 C 232.140 134.371,233.754 133.084,234.186 132.692 C 237.382 129.796,251.057 121.508,257.719 118.428 C 263.990 115.530,264.874 115.164,268.527 113.958 C 276.598 111.295,281.674 110.084,292.600 108.218 C 296.449 107.561,303.846 107.428,304.206 108.009 M290.338 130.126 C 290.701 130.563,274.243 156.184,266.394 167.400 C 265.932 168.060,263.304 172.020,260.553 176.200 C 254.419 185.521,254.596 185.326,252.791 184.760 C 252.026 184.520,250.140 184.172,248.600 183.987 C 247.060 183.802,244.900 183.467,243.800 183.241 C 235.164 181.472,212.588 181.665,207.874 183.550 C 207.255 183.797,205.911 184.000,204.887 184.000 C 203.864 184.000,202.301 184.251,201.413 184.558 C 200.526 184.865,198.720 185.429,197.400 185.811 C 196.080 186.193,194.280 186.773,193.400 187.098 C 189.289 188.619,188.554 188.906,187.905 189.241 C 184.812 190.840,185.390 189.048,189.920 183.000 C 197.938 172.292,210.434 160.054,220.800 152.755 C 226.486 148.751,227.603 148.000,227.864 148.000 C 228.014 148.000,228.421 147.753,228.769 147.452 C 229.911 146.460,242.891 139.600,243.625 139.600 C 243.800 139.600,245.111 139.060,246.537 138.400 C 247.963 137.740,249.379 137.200,249.685 137.200 C 249.990 137.200,250.411 137.046,250.620 136.857 C 250.829 136.669,252.350 136.109,254.000 135.614 C 255.650 135.119,257.591 134.463,258.314 134.157 C 259.036 133.851,259.961 133.600,260.370 133.600 C 260.778 133.600,262.864 133.145,265.004 132.589 C 267.144 132.033,269.999 131.476,271.348 131.353 C 272.697 131.229,274.421 130.938,275.179 130.707 C 275.938 130.475,279.268 130.160,282.579 130.006 C 285.891 129.852,288.893 129.698,289.251 129.663 C 289.609 129.628,290.098 129.837,290.338 130.126 M151.247 135.827 C 151.403 136.472,151.721 139.790,151.955 143.200 C 152.380 149.410,152.868 153.708,153.658 158.200 C 153.890 159.520,154.229 161.590,154.410 162.800 C 154.591 164.010,155.120 166.620,155.585 168.600 C 156.051 170.580,156.591 172.923,156.786 173.807 C 157.355 176.382,160.615 185.898,162.198 189.600 C 165.032 196.231,168.132 201.629,172.300 207.187 C 174.947 210.716,174.224 210.543,162.000 204.717 C 142.718 195.529,125.049 181.353,111.000 163.800 C 105.049 156.364,98.981 146.888,99.705 146.162 C 100.011 145.856,100.462 146.160,106.211 150.548 C 114.530 156.898,123.858 160.808,120.474 156.527 C 115.084 149.710,116.233 141.401,123.126 137.342 C 131.414 132.461,142.706 142.631,139.400 152.000 C 138.061 155.796,139.065 156.230,141.817 153.042 C 143.794 150.752,146.938 145.547,147.307 143.954 C 147.428 143.429,147.975 141.740,148.521 140.200 C 149.067 138.660,149.634 136.713,149.780 135.874 C 150.087 134.113,150.827 134.090,151.247 135.827 M296.026 140.814 C 297.092 141.384,296.996 142.231,295.672 143.942 C 295.052 144.744,294.007 146.210,293.349 147.200 C 292.692 148.190,290.559 151.340,288.609 154.200 C 284.209 160.655,277.692 170.273,273.432 176.600 C 271.654 179.240,270.106 181.490,269.990 181.600 C 269.875 181.710,268.816 183.240,267.637 185.000 C 259.221 197.564,260.246 196.658,255.835 195.437 C 252.860 194.613,247.132 193.602,245.347 193.586 C 244.496 193.578,242.630 193.315,241.200 193.000 C 237.999 192.296,215.248 192.173,212.400 192.844 C 211.410 193.077,209.160 193.425,207.400 193.616 C 201.625 194.243,190.707 197.151,185.112 199.551 C 182.935 200.485,182.685 200.289,183.046 197.924 C 183.434 195.383,185.859 193.925,192.600 192.178 C 202.980 189.489,204.550 189.222,217.018 188.024 C 226.349 187.128,243.578 188.495,254.800 191.020 C 259.401 192.056,258.976 192.251,262.251 187.600 C 263.877 185.290,265.326 183.130,265.471 182.800 C 265.615 182.470,266.198 181.569,266.766 180.798 C 267.335 180.028,267.980 179.093,268.200 178.722 C 268.420 178.352,270.844 174.752,273.588 170.724 C 282.684 157.366,286.593 151.594,287.200 150.624 C 292.921 141.476,294.332 139.908,296.026 140.814 M301.367 148.243 C 302.673 148.744,301.086 152.791,298.516 155.512 C 298.116 155.936,295.999 159.027,292.000 165.027 C 291.670 165.522,290.558 167.158,289.529 168.663 C 287.977 170.934,282.573 178.941,280.699 181.747 C 280.425 182.158,279.736 183.148,279.170 183.947 C 278.603 184.746,276.908 187.200,275.402 189.400 C 273.897 191.600,271.731 194.750,270.590 196.400 C 269.449 198.050,267.569 200.795,266.414 202.500 C 264.055 205.980,263.233 206.282,259.600 205.000 C 258.665 204.670,257.223 204.400,256.396 204.400 C 255.569 204.400,254.016 204.144,252.946 203.830 C 243.621 201.099,212.422 201.101,203.054 203.833 C 201.984 204.145,200.621 204.400,200.025 204.400 C 199.430 204.400,198.145 204.649,197.171 204.954 C 196.197 205.259,194.230 205.822,192.800 206.205 C 191.370 206.588,189.633 207.148,188.940 207.450 C 188.246 207.753,187.482 208.000,187.241 208.000 C 186.999 208.000,185.659 208.540,184.262 209.200 C 180.105 211.164,179.560 210.901,180.452 207.359 C 180.902 205.573,182.821 204.000,184.552 204.000 C 184.873 204.000,185.645 203.748,186.268 203.439 C 188.093 202.535,194.423 200.725,199.000 199.798 C 200.760 199.442,203.010 198.969,204.000 198.748 C 204.990 198.527,207.690 198.176,210.000 197.970 C 212.310 197.763,215.550 197.423,217.200 197.215 C 220.955 196.740,229.854 196.742,234.600 197.219 C 236.580 197.418,240.508 197.765,243.328 197.991 C 246.149 198.217,248.792 198.582,249.202 198.801 C 249.612 199.021,250.545 199.200,251.276 199.200 C 252.007 199.200,253.234 199.393,254.003 199.629 C 255.331 200.037,260.303 200.818,262.360 200.942 C 263.199 200.993,273.445 186.813,277.683 179.737 C 277.967 179.262,280.527 175.482,283.372 171.337 C 288.787 163.445,293.916 155.863,294.598 154.739 C 297.849 149.388,299.706 147.605,301.367 148.243 M92.385 227.782 C 92.651 228.103,92.754 228.550,92.614 228.777 C 92.474 229.003,92.189 230.136,91.981 231.294 C 91.773 232.452,91.441 234.120,91.244 235.000 C 91.047 235.880,90.487 238.490,90.000 240.800 C 89.513 243.110,88.953 245.720,88.756 246.600 C 88.559 247.480,88.219 249.100,88.000 250.200 C 87.781 251.300,87.421 253.010,87.200 254.000 C 86.979 254.990,86.619 256.700,86.400 257.800 C 86.181 258.900,85.841 260.520,85.644 261.400 C 85.447 262.280,84.909 264.800,84.449 267.000 C 83.988 269.200,83.335 272.260,82.997 273.800 C 81.824 279.139,83.494 279.959,88.070 276.293 C 88.878 275.645,89.733 275.235,89.970 275.381 C 91.956 276.609,84.536 282.779,80.200 283.505 C 72.082 284.864,71.150 281.566,74.800 264.400 C 75.291 262.090,75.831 259.480,76.000 258.600 C 76.169 257.720,76.709 255.110,77.200 252.800 C 78.062 248.745,78.253 247.803,79.262 242.600 C 79.518 241.280,79.744 238.948,79.764 237.418 L 79.800 234.635 78.083 233.479 C 76.201 232.213,76.273 231.462,78.313 231.087 C 78.911 230.977,82.100 230.076,85.400 229.084 C 92.570 226.930,91.798 227.074,92.385 227.782 M59.600 229.390 C 67.575 230.650,70.526 232.162,70.004 234.720 C 69.837 235.534,69.483 237.820,69.216 239.800 C 68.280 246.743,67.809 246.706,65.424 239.501 C 63.037 232.291,61.738 231.200,55.542 231.200 C 43.946 231.200,36.000 243.245,36.000 260.823 C 36.000 264.972,36.180 266.349,37.299 270.778 C 38.955 277.334,43.288 281.390,49.155 281.874 C 54.410 282.308,56.403 281.057,60.158 274.973 C 61.235 273.228,62.649 270.945,63.300 269.900 C 64.784 267.518,65.828 267.322,65.431 269.500 C 65.174 270.907,64.785 273.388,64.159 277.600 C 63.826 279.846,63.516 280.236,61.235 281.276 C 48.285 287.179,32.181 283.154,27.086 272.740 C 24.531 267.517,23.714 258.292,25.320 252.800 C 25.674 251.590,26.089 250.170,26.243 249.645 C 30.140 236.320,45.280 227.127,59.600 229.390 M225.813 230.821 C 225.956 231.052,226.607 233.347,227.261 235.921 C 227.915 238.494,228.967 242.580,229.599 245.000 C 231.245 251.297,233.938 261.729,234.757 264.976 C 235.142 266.503,235.649 267.816,235.885 267.895 C 236.120 267.973,239.244 263.124,242.827 257.119 C 246.410 251.113,251.448 242.690,254.022 238.400 L 258.703 230.600 265.421 230.490 C 272.855 230.368,273.720 230.609,271.310 232.131 C 268.449 233.937,268.069 234.645,267.171 239.852 C 266.967 241.033,266.620 242.990,266.400 244.200 C 266.180 245.410,265.820 247.390,265.600 248.600 C 265.380 249.810,265.011 251.835,264.780 253.100 C 264.549 254.365,264.174 256.480,263.946 257.800 C 263.718 259.120,263.382 261.010,263.200 262.000 C 263.018 262.990,262.682 264.880,262.454 266.200 C 262.226 267.520,261.842 269.680,261.600 271.000 C 260.199 278.642,260.268 279.338,262.577 280.907 C 264.676 282.333,264.296 282.400,254.133 282.400 C 244.622 282.400,243.325 282.176,246.108 281.013 C 248.905 279.844,249.112 279.248,251.600 265.200 C 251.853 263.770,252.213 261.790,252.400 260.800 C 252.587 259.810,252.947 257.830,253.200 256.400 C 253.453 254.970,253.832 252.900,254.042 251.800 C 254.252 250.700,254.606 248.810,254.828 247.600 C 255.051 246.390,255.411 244.611,255.629 243.646 C 255.979 242.099,255.893 241.148,255.447 241.633 C 255.257 241.840,248.030 253.900,247.434 255.004 C 247.195 255.447,243.410 261.792,239.022 269.104 L 231.043 282.400 229.545 282.400 C 227.698 282.400,227.773 282.527,226.389 277.079 C 225.763 274.616,224.504 269.720,223.591 266.200 C 222.679 262.680,221.782 259.170,221.598 258.400 C 219.771 250.732,217.348 241.605,217.140 241.603 C 216.866 241.600,216.365 243.680,215.600 248.000 C 215.347 249.430,214.987 251.410,214.800 252.400 C 214.613 253.390,214.253 255.370,214.000 256.800 C 213.747 258.230,213.389 260.210,213.205 261.200 C 212.721 263.806,212.136 267.025,211.608 270.000 C 211.354 271.430,210.978 273.355,210.773 274.277 C 209.876 278.312,210.467 279.910,213.300 281.115 C 215.622 282.102,214.433 282.400,208.167 282.400 C 201.624 282.400,200.570 282.045,203.796 280.928 C 207.204 279.748,207.514 279.091,209.229 269.400 C 209.462 268.080,209.809 266.280,210.000 265.400 C 210.191 264.520,210.552 262.630,210.804 261.200 C 211.390 257.863,211.812 255.590,212.400 252.600 C 213.173 248.672,213.526 246.753,214.022 243.800 C 214.281 242.260,214.652 240.478,214.846 239.840 C 215.674 237.128,215.129 234.735,213.177 232.513 C 212.520 231.764,212.087 230.983,212.215 230.776 C 212.544 230.244,225.482 230.286,225.813 230.821 M339.288 236.043 C 339.226 237.229,339.011 238.740,338.809 239.400 C 338.608 240.060,338.324 241.448,338.178 242.485 L 337.914 244.370 341.857 244.485 C 345.495 244.591,345.800 244.662,345.800 245.400 C 345.800 246.139,345.495 246.209,341.804 246.316 C 339.607 246.379,337.650 246.590,337.457 246.783 C 337.081 247.159,337.052 247.285,335.209 256.600 C 335.035 257.480,334.491 260.090,334.000 262.400 C 333.509 264.710,332.971 267.320,332.805 268.200 C 332.639 269.080,332.197 271.222,331.823 272.959 C 330.561 278.825,331.940 279.716,336.569 276.028 C 340.169 273.159,339.357 276.239,335.594 279.723 C 329.249 285.598,320.769 284.793,320.808 278.320 C 320.818 276.665,321.700 271.819,323.197 265.200 C 323.371 264.430,323.913 261.910,324.400 259.600 C 324.887 257.290,325.429 254.770,325.603 254.000 C 327.438 245.886,327.605 246.623,323.900 246.483 C 319.976 246.335,320.081 244.800,324.015 244.800 C 326.569 244.800,329.253 243.037,333.995 238.242 C 339.094 233.087,339.449 232.940,339.288 236.043 M125.208 244.358 C 126.839 245.208,128.615 245.238,129.800 244.437 C 130.672 243.848,133.220 243.165,133.621 243.413 C 134.137 243.732,134.048 244.262,132.000 253.000 C 130.900 257.693,130.578 259.120,129.156 265.600 C 128.891 266.810,128.357 269.060,127.970 270.600 C 125.890 278.876,127.023 280.707,131.786 276.771 C 135.296 273.871,135.501 275.612,132.061 279.106 C 125.499 285.771,117.905 285.024,116.911 277.616 L 116.703 276.062 113.517 278.775 C 109.270 282.392,107.595 283.256,104.400 283.478 C 93.645 284.225,91.991 269.308,101.398 256.400 C 108.643 246.459,119.096 241.172,125.208 244.358 M162.600 243.742 C 170.985 245.977,172.748 256.000,164.521 254.665 C 162.131 254.277,161.445 253.373,159.311 247.800 C 157.651 243.463,153.435 245.566,153.435 250.732 C 153.435 254.436,154.559 256.262,159.294 260.257 C 166.410 266.262,168.151 270.684,165.565 276.186 C 160.806 286.309,139.200 286.325,139.200 276.206 C 139.200 268.902,147.505 269.563,149.190 277.000 C 150.095 280.998,150.535 281.600,152.552 281.600 C 158.533 281.600,158.846 273.600,153.058 268.686 C 147.033 263.572,145.298 261.286,144.469 257.371 C 142.609 248.594,152.606 241.079,162.600 243.742 M195.800 243.742 C 201.032 245.137,203.912 248.633,202.700 252.118 C 201.142 256.595,195.564 255.605,193.617 250.505 C 191.759 245.640,191.732 245.600,190.276 245.600 C 184.982 245.600,185.269 254.122,190.717 258.703 C 197.594 264.486,198.862 266.083,199.645 269.951 C 201.334 278.298,191.782 285.170,180.800 283.508 C 174.541 282.561,170.900 278.582,172.521 274.459 C 174.454 269.539,180.805 270.433,182.044 275.800 C 183.343 281.425,185.164 282.952,188.201 280.963 C 192.467 278.168,191.001 272.546,184.615 267.213 C 179.139 262.639,177.600 260.083,177.600 255.563 C 177.600 247.057,186.514 241.268,195.800 243.742 M303.474 244.252 C 305.876 245.389,305.846 245.391,310.119 243.750 C 312.313 242.908,312.959 243.304,312.409 245.158 C 312.239 245.731,311.888 247.190,311.630 248.400 C 310.988 251.411,310.586 253.194,309.600 257.400 C 309.136 259.380,308.586 261.765,308.378 262.700 C 308.170 263.635,307.829 265.165,307.620 266.100 C 307.410 267.035,307.028 268.790,306.770 270.000 C 306.512 271.210,306.143 272.722,305.950 273.360 C 304.376 278.572,306.237 279.909,310.517 276.643 C 313.742 274.181,313.794 275.817,310.598 279.168 C 304.084 285.998,295.618 284.830,295.602 277.100 C 295.599 275.600,295.504 275.643,292.327 278.585 C 283.877 286.408,275.696 284.985,274.021 275.400 C 271.463 260.765,292.145 238.893,303.474 244.252 M373.600 243.718 C 380.595 245.592,382.485 252.494,377.426 257.695 C 373.620 261.608,366.549 264.965,358.700 266.588 C 357.681 266.798,357.602 266.955,357.630 268.708 C 357.769 277.309,367.670 279.808,374.471 272.957 C 377.517 269.890,378.418 270.610,376.073 274.238 C 366.474 289.089,347.200 285.615,347.200 269.034 C 347.200 253.559,360.987 240.338,373.600 243.718 M367.304 246.440 C 362.361 248.887,355.419 262.086,357.815 264.481 C 358.557 265.223,366.582 261.279,368.819 259.073 C 374.933 253.045,373.757 243.246,367.304 246.440 M114.497 247.197 C 111.227 249.191,107.448 254.680,106.351 259.030 C 104.057 268.131,104.490 274.843,107.475 276.440 C 111.153 278.409,116.945 274.807,117.934 269.936 C 118.529 267.008,118.959 265.012,119.600 262.200 C 120.175 259.677,120.634 257.594,121.230 254.800 C 121.488 253.590,121.857 252.078,122.050 251.440 C 123.334 247.189,118.742 244.609,114.497 247.197 M292.778 247.546 C 283.250 253.688,279.671 276.892,288.251 276.892 C 291.383 276.892,295.629 274.011,296.190 271.506 C 296.351 270.787,296.624 269.570,296.798 268.800 C 296.972 268.030,297.513 265.510,298.000 263.200 C 298.487 260.890,299.029 258.370,299.203 257.600 C 299.569 255.981,300.329 252.511,300.823 250.200 C 301.011 249.320,301.173 248.462,301.183 248.294 C 301.293 246.364,295.423 245.841,292.778 247.546 " stroke="none" fill="#fbfbfb" fill-rule="evenodd"></path><path id="path2" d="M176.000 97.134 C 176.000 97.575,175.748 98.445,175.439 99.068 C 174.398 101.171,173.600 103.224,173.600 103.800 C 173.600 104.115,173.352 104.964,173.049 105.686 C 172.541 106.897,171.903 108.930,170.567 113.600 C 170.283 114.590,169.742 116.840,169.364 118.600 C 168.986 120.360,168.435 122.783,168.138 123.984 C 167.842 125.185,167.600 126.806,167.600 127.587 C 167.600 128.367,167.405 129.634,167.167 130.403 C 166.021 134.098,165.032 153.296,165.582 161.173 C 166.326 171.832,166.710 175.709,167.169 177.197 C 167.406 177.966,167.600 179.189,167.600 179.915 C 167.600 181.134,168.244 184.342,169.254 188.157 C 169.481 189.013,169.813 190.543,169.992 191.557 C 170.171 192.571,170.511 193.940,170.747 194.600 C 170.984 195.260,171.585 197.200,172.084 198.911 C 173.112 202.439,173.958 202.878,174.556 200.196 C 175.076 197.862,176.231 194.115,177.207 191.600 C 177.676 190.390,178.201 188.950,178.374 188.400 C 179.406 185.119,184.358 176.115,189.125 168.851 C 195.767 158.731,207.583 145.383,218.100 136.119 C 223.497 131.365,223.746 130.650,219.311 132.634 C 215.133 134.503,214.319 134.830,211.846 135.628 C 210.501 136.062,208.860 136.609,208.200 136.845 C 206.710 137.376,197.797 137.801,195.842 137.434 C 193.813 137.054,194.044 136.586,196.670 135.761 C 211.045 131.239,209.933 110.570,195.306 110.418 C 188.733 110.349,182.015 116.435,181.994 122.478 C 181.985 124.963,181.411 125.671,180.392 124.456 C 179.956 123.936,179.600 123.175,179.600 122.764 C 179.600 122.353,179.354 121.338,179.053 120.508 C 177.863 117.229,177.454 113.840,177.232 105.433 C 177.060 98.943,176.870 96.622,176.500 96.499 C 176.211 96.403,176.000 96.672,176.000 97.134 M293.515 141.500 C 292.813 142.306,280.970 159.871,279.862 161.749 C 279.456 162.437,278.781 163.372,278.362 163.826 C 277.943 164.280,277.600 164.761,277.600 164.895 C 277.600 165.028,276.691 166.457,275.581 168.069 C 274.470 169.681,271.997 173.340,270.085 176.200 C 268.173 179.060,266.514 181.490,266.399 181.600 C 266.284 181.710,264.805 183.887,263.112 186.437 C 259.313 192.159,259.216 192.247,257.287 191.690 C 255.935 191.299,254.283 190.962,247.000 189.592 C 244.633 189.147,241.197 188.828,230.200 188.037 C 224.111 187.598,210.903 188.319,205.400 189.390 C 197.696 190.889,195.698 191.341,194.540 191.848 C 193.846 192.152,192.946 192.406,192.540 192.413 C 191.849 192.425,189.279 193.269,186.674 194.338 C 186.055 194.592,185.411 194.800,185.244 194.800 C 184.503 194.800,183.282 196.746,183.047 198.300 C 182.719 200.472,183.063 200.438,190.200 197.586 C 191.829 196.935,193.864 196.311,196.200 195.746 C 201.888 194.370,203.984 193.951,207.000 193.588 C 208.760 193.375,211.100 192.985,212.200 192.720 C 215.050 192.033,237.448 192.027,240.367 192.712 C 241.560 192.992,244.080 193.398,245.967 193.614 C 249.499 194.019,253.806 194.783,257.508 195.661 C 260.166 196.292,259.563 196.916,267.032 185.800 C 270.283 180.960,273.496 176.254,274.172 175.342 C 274.847 174.431,276.062 172.631,276.872 171.342 C 277.682 170.054,279.282 167.650,280.427 166.000 C 281.573 164.350,284.346 160.300,286.589 157.000 C 288.833 153.700,292.065 148.969,293.772 146.487 C 295.582 143.854,296.782 141.729,296.650 141.387 C 296.338 140.573,294.256 140.648,293.515 141.500 " stroke="none" fill="#d0426f" fill-rule="evenodd"></path><path id="path3" d="M292.600 108.218 C 281.674 110.084,276.598 111.295,268.527 113.958 C 264.874 115.164,263.990 115.530,257.719 118.428 C 251.057 121.508,237.382 129.796,234.186 132.692 C 233.754 133.084,232.140 134.371,230.600 135.553 C 227.445 137.974,220.580 144.713,220.921 145.054 C 221.044 145.177,223.722 143.587,226.872 141.522 C 246.750 128.489,267.832 121.235,287.800 120.558 C 296.731 120.256,297.321 120.039,299.400 116.297 C 299.620 115.901,300.848 113.966,302.129 111.998 C 303.410 110.029,304.345 108.234,304.206 108.009 C 303.846 107.428,296.449 107.561,292.600 108.218 M149.780 135.874 C 149.634 136.713,149.067 138.660,148.521 140.200 C 147.975 141.740,147.428 143.429,147.307 143.954 C 146.938 145.547,143.794 150.752,141.817 153.042 C 139.065 156.230,138.061 155.796,139.400 152.000 C 142.706 142.631,131.414 132.461,123.126 137.342 C 116.233 141.401,115.084 149.710,120.474 156.527 C 123.858 160.808,114.530 156.898,106.211 150.548 C 100.462 146.160,100.011 145.856,99.705 146.162 C 98.981 146.888,105.049 156.364,111.000 163.800 C 125.049 181.353,142.718 195.529,162.000 204.717 C 174.224 210.543,174.947 210.716,172.300 207.187 C 168.132 201.629,165.032 196.231,162.198 189.600 C 160.615 185.898,157.355 176.382,156.786 173.807 C 156.591 172.923,156.051 170.580,155.585 168.600 C 155.120 166.620,154.591 164.010,154.410 162.800 C 154.229 161.590,153.890 159.520,153.658 158.200 C 152.868 153.708,152.380 149.410,151.955 143.200 C 151.385 134.878,150.483 131.840,149.780 135.874 M165.324 147.800 C 165.326 149.120,165.401 149.612,165.490 148.893 C 165.579 148.174,165.577 147.094,165.486 146.493 C 165.395 145.892,165.322 146.480,165.324 147.800 M165.314 160.600 C 165.317 161.700,165.395 162.103,165.487 161.495 C 165.579 160.886,165.577 159.986,165.482 159.495 C 165.387 159.003,165.311 159.500,165.314 160.600 M220.305 187.883 C 220.802 187.979,221.522 187.975,221.905 187.875 C 222.287 187.775,221.880 187.696,221.000 187.701 C 220.120 187.705,219.807 187.787,220.305 187.883 M226.900 187.876 C 227.285 187.976,227.915 187.976,228.300 187.876 C 228.685 187.775,228.370 187.693,227.600 187.693 C 226.830 187.693,226.515 187.775,226.900 187.876 M210.705 188.683 C 211.202 188.779,211.922 188.775,212.305 188.675 C 212.687 188.575,212.280 188.496,211.400 188.501 C 210.520 188.505,210.207 188.587,210.705 188.683 M237.700 188.676 C 238.085 188.776,238.715 188.776,239.100 188.676 C 239.485 188.575,239.170 188.493,238.400 188.493 C 237.630 188.493,237.315 188.575,237.700 188.676 M223.321 192.298 C 225.477 192.371,228.897 192.370,230.921 192.298 C 232.944 192.225,231.180 192.166,227.000 192.167 C 222.820 192.167,221.164 192.226,223.321 192.298 " stroke="none" fill="#ebb74b" fill-rule="evenodd"></path><path id="path4" d="M282.579 130.006 C 279.268 130.160,275.938 130.475,275.179 130.707 C 274.421 130.938,272.697 131.229,271.348 131.353 C 269.999 131.476,267.144 132.033,265.004 132.589 C 262.864 133.145,260.778 133.600,260.370 133.600 C 259.961 133.600,259.036 133.851,258.314 134.157 C 257.591 134.463,255.650 135.119,254.000 135.614 C 252.350 136.109,250.829 136.669,250.620 136.857 C 250.411 137.046,249.990 137.200,249.685 137.200 C 249.379 137.200,247.963 137.740,246.537 138.400 C 245.111 139.060,243.800 139.600,243.625 139.600 C 242.891 139.600,229.911 146.460,228.769 147.452 C 228.421 147.753,228.014 148.000,227.864 148.000 C 227.603 148.000,226.486 148.751,220.800 152.755 C 213.503 157.893,200.243 170.124,194.731 176.800 C 186.739 186.482,184.164 191.175,187.905 189.241 C 188.554 188.906,189.289 188.619,193.400 187.098 C 194.280 186.773,196.080 186.193,197.400 185.811 C 198.720 185.429,200.526 184.865,201.413 184.558 C 202.301 184.251,203.864 184.000,204.887 184.000 C 205.911 184.000,207.255 183.797,207.874 183.550 C 212.588 181.665,235.164 181.472,243.800 183.241 C 244.900 183.467,247.060 183.802,248.600 183.987 C 250.140 184.172,252.026 184.520,252.791 184.760 C 254.596 185.326,254.419 185.521,260.553 176.200 C 263.304 172.020,265.932 168.060,266.394 167.400 C 266.856 166.740,272.531 158.202,279.004 148.426 C 290.840 130.554,291.442 129.451,289.251 129.663 C 288.893 129.698,285.891 129.852,282.579 130.006 M297.150 151.039 C 295.967 152.710,294.819 154.375,294.598 154.739 C 293.916 155.863,288.787 163.445,283.372 171.337 C 280.527 175.482,277.967 179.262,277.683 179.737 C 273.445 186.813,263.199 200.993,262.360 200.942 C 260.303 200.818,255.331 200.037,254.003 199.629 C 253.234 199.393,252.007 199.200,251.276 199.200 C 250.545 199.200,249.612 199.021,249.202 198.801 C 248.792 198.582,246.149 198.217,243.328 197.991 C 240.508 197.765,236.580 197.418,234.600 197.219 C 229.854 196.742,220.955 196.740,217.200 197.215 C 215.550 197.423,212.310 197.763,210.000 197.970 C 207.690 198.176,204.990 198.527,204.000 198.748 C 203.010 198.969,200.760 199.442,199.000 199.798 C 194.423 200.725,188.093 202.535,186.268 203.439 C 185.645 203.748,184.873 204.000,184.552 204.000 C 182.821 204.000,180.902 205.573,180.452 207.359 C 179.560 210.901,180.105 211.164,184.262 209.200 C 185.659 208.540,186.999 208.000,187.241 208.000 C 187.482 208.000,188.246 207.753,188.940 207.450 C 189.633 207.148,191.370 206.588,192.800 206.205 C 194.230 205.822,196.197 205.259,197.171 204.954 C 198.145 204.649,199.430 204.400,200.025 204.400 C 200.621 204.400,201.984 204.145,203.054 203.833 C 212.422 201.101,243.621 201.099,252.946 203.830 C 254.016 204.144,255.569 204.400,256.396 204.400 C 257.223 204.400,258.665 204.670,259.600 205.000 C 263.233 206.282,264.055 205.980,266.414 202.500 C 267.569 200.795,269.449 198.050,270.590 196.400 C 271.731 194.750,273.897 191.600,275.402 189.400 C 276.908 187.200,278.603 184.746,279.170 183.947 C 279.736 183.148,280.425 182.158,280.699 181.747 C 282.573 178.941,287.977 170.934,289.529 168.663 C 290.558 167.158,291.670 165.522,292.000 165.027 C 295.999 159.027,298.116 155.936,298.516 155.512 C 301.086 152.791,302.673 148.744,301.367 148.243 C 299.868 147.667,299.241 148.083,297.150 151.039 M301.038 149.354 C 301.202 149.783,297.017 156.621,295.990 157.600 C 295.777 157.803,294.324 159.941,287.830 169.598 C 285.833 172.567,284.060 175.177,283.889 175.398 C 283.718 175.619,282.638 177.195,281.489 178.900 C 273.635 190.554,269.768 196.227,269.560 196.400 C 269.346 196.578,267.675 199.039,266.600 200.760 C 266.380 201.112,266.108 201.490,265.996 201.600 C 265.884 201.710,265.344 202.474,264.796 203.297 C 263.741 204.884,262.983 205.101,260.960 204.396 C 260.322 204.174,258.630 203.820,257.200 203.609 C 255.770 203.399,253.250 202.939,251.600 202.588 C 249.950 202.237,245.625 201.802,241.989 201.621 C 238.353 201.441,233.114 201.064,230.346 200.783 C 226.484 200.392,224.765 200.380,222.957 200.732 C 221.660 200.984,217.990 201.300,214.800 201.434 C 211.603 201.568,207.295 202.030,205.200 202.462 C 203.110 202.894,200.419 203.424,199.220 203.642 C 198.021 203.859,196.221 204.282,195.220 204.583 C 188.604 206.572,184.789 207.882,183.278 208.686 C 181.184 209.798,180.904 209.683,181.125 207.796 C 181.274 206.513,181.509 206.248,183.147 205.518 C 184.166 205.064,185.740 204.356,186.644 203.946 C 187.548 203.536,188.600 203.200,188.982 203.200 C 189.941 203.200,194.099 201.984,194.653 201.542 C 194.902 201.343,196.252 201.014,197.653 200.810 C 199.054 200.606,201.730 200.155,203.600 199.807 C 214.053 197.861,226.712 197.407,239.400 198.523 C 246.378 199.137,248.023 199.378,253.657 200.616 C 255.119 200.937,257.003 201.200,257.844 201.200 C 258.685 201.200,260.142 201.494,261.082 201.853 C 263.235 202.675,263.217 202.689,266.905 197.233 C 268.478 194.905,271.890 189.850,274.486 186.000 C 277.082 182.150,279.839 178.100,280.612 177.000 C 282.915 173.724,288.169 166.008,288.600 165.269 C 288.820 164.892,289.450 163.961,290.000 163.200 C 290.550 162.439,291.180 161.505,291.400 161.124 C 291.903 160.252,297.261 152.339,297.712 151.800 C 297.897 151.580,298.394 150.815,298.818 150.100 C 299.618 148.749,300.670 148.396,301.038 149.354 M86.800 228.647 C 84.270 229.398,81.507 230.201,80.660 230.432 C 79.812 230.664,79.207 230.941,79.315 231.048 C 79.422 231.156,82.037 230.514,85.124 229.622 C 91.854 227.678,91.992 227.667,92.025 229.100 C 92.051 230.199,92.051 230.200,92.432 229.248 C 92.690 228.602,92.666 228.121,92.357 227.748 C 91.808 227.086,92.359 226.997,86.800 228.647 M52.400 229.200 C 51.164 229.392,52.104 229.482,55.400 229.486 C 59.118 229.492,59.749 229.423,58.200 229.182 C 55.858 228.817,54.844 228.820,52.400 229.200 M47.400 230.000 L 46.600 230.344 47.400 230.332 C 47.840 230.326,48.650 230.176,49.200 230.000 L 50.200 229.680 49.200 229.668 C 48.650 229.662,47.840 229.811,47.400 230.000 M61.200 230.000 C 62.730 230.490,63.958 230.490,63.200 230.000 C 62.870 229.787,62.060 229.627,61.400 229.646 C 60.224 229.679,60.220 229.686,61.200 230.000 M44.800 230.800 C 44.267 231.145,44.267 231.188,44.800 231.188 C 45.130 231.188,45.670 231.013,46.000 230.800 C 46.533 230.455,46.533 230.412,46.000 230.412 C 45.670 230.412,45.130 230.587,44.800 230.800 M53.000 230.800 C 52.191 231.006,53.038 231.112,55.600 231.125 C 58.057 231.137,59.117 231.022,58.600 230.800 C 57.628 230.383,54.641 230.383,53.000 230.800 M64.800 230.870 C 69.610 232.869,69.597 232.859,69.647 234.368 L 69.695 235.800 69.975 234.600 C 70.374 232.891,67.004 230.328,64.488 230.427 C 64.013 230.446,64.109 230.583,64.800 230.870 M91.419 231.927 C 91.255 232.877,91.217 233.750,91.334 233.868 C 91.626 234.159,92.126 231.373,91.900 230.721 C 91.800 230.435,91.584 230.977,91.419 231.927 M212.215 230.776 C 212.087 230.983,212.523 231.768,213.183 232.520 C 213.844 233.272,214.556 234.318,214.767 234.844 C 215.107 235.694,215.152 235.711,215.175 234.991 C 215.189 234.546,214.666 233.535,214.014 232.744 C 212.425 230.815,212.467 230.800,219.266 230.800 L 225.198 230.800 225.766 232.100 C 226.133 232.939,226.346 233.142,226.367 232.674 C 226.464 230.525,226.060 230.400,219.010 230.400 C 215.345 230.400,212.345 230.566,212.215 230.776 M257.691 232.300 C 257.035 233.345,254.888 236.900,252.919 240.200 C 250.949 243.500,246.406 251.116,242.822 257.125 C 238.298 264.708,236.136 267.984,235.753 267.837 C 235.437 267.716,235.200 267.877,235.200 268.213 C 235.200 270.644,235.862 269.615,255.920 236.000 C 256.904 234.350,258.057 232.505,258.482 231.900 L 259.254 230.800 265.461 230.800 C 272.013 230.800,272.340 230.922,270.000 232.490 C 268.397 233.564,267.231 235.651,267.255 237.400 L 267.272 238.600 267.652 237.200 C 268.406 234.425,268.858 233.749,270.823 232.463 C 273.676 230.595,273.184 230.400,265.618 230.400 L 258.883 230.400 257.691 232.300 M40.800 232.485 C 36.400 234.929,32.708 238.224,30.136 242.000 C 28.566 244.304,27.085 247.218,27.349 247.482 C 27.461 247.594,27.821 247.046,28.147 246.264 C 30.215 241.316,35.633 235.770,41.381 232.718 C 42.931 231.895,43.930 231.230,43.600 231.242 C 43.270 231.253,42.010 231.812,40.800 232.485 M48.415 232.315 C 44.905 234.058,38.280 241.613,39.335 242.668 C 39.470 242.804,39.706 242.574,39.859 242.157 C 41.097 238.788,45.659 234.079,49.335 232.378 C 50.691 231.750,51.530 231.235,51.200 231.233 C 50.870 231.231,49.617 231.718,48.415 232.315 M60.672 231.822 C 62.498 232.622,63.777 234.529,65.022 238.310 C 65.622 240.131,66.196 241.537,66.298 241.436 C 66.562 241.171,64.843 236.060,63.929 234.393 C 63.116 232.911,60.948 231.177,59.975 231.233 C 59.659 231.251,59.972 231.516,60.672 231.822 M76.832 231.762 C 76.455 232.215,76.697 232.546,78.083 233.474 C 79.725 234.575,79.809 234.729,80.006 237.013 L 80.212 239.400 80.535 237.736 C 80.942 235.641,80.038 233.696,78.365 233.064 C 76.967 232.537,76.888 232.100,78.100 231.612 C 78.983 231.257,78.984 231.250,78.149 231.225 C 77.681 231.211,77.088 231.453,76.832 231.762 M226.456 234.200 C 226.456 234.640,226.611 235.360,226.800 235.800 L 227.144 236.600 227.144 235.800 C 227.144 235.360,226.989 234.640,226.800 234.200 L 226.456 233.400 226.456 234.200 M333.995 238.243 C 330.848 241.424,328.770 243.182,327.400 243.821 C 325.134 244.878,325.487 245.141,327.847 244.155 C 328.782 243.764,331.173 241.711,333.904 238.955 C 338.697 234.117,339.036 233.889,339.336 235.300 C 339.469 235.928,339.508 235.846,339.463 235.031 C 339.357 233.073,338.764 233.421,333.995 238.243 M90.578 235.778 C 90.427 236.581,90.404 237.337,90.526 237.460 C 90.648 237.582,90.872 237.025,91.022 236.222 C 91.173 235.419,91.196 234.663,91.074 234.540 C 90.952 234.418,90.728 234.975,90.578 235.778 M215.293 237.200 C 215.293 237.970,215.375 238.285,215.476 237.900 C 215.576 237.515,215.576 236.885,215.476 236.500 C 215.375 236.115,215.293 236.430,215.293 237.200 M68.988 238.138 C 68.839 239.135,68.799 240.186,68.900 240.475 C 69.000 240.764,69.218 240.043,69.382 238.874 C 69.547 237.705,69.587 236.654,69.471 236.538 C 69.355 236.422,69.138 237.142,68.988 238.138 M338.619 237.927 C 338.455 238.877,338.417 239.750,338.534 239.868 C 338.826 240.159,339.326 237.373,339.100 236.721 C 339.000 236.435,338.784 236.977,338.619 237.927 M227.256 237.400 C 227.256 237.840,227.411 238.560,227.600 239.000 L 227.944 239.800 227.944 239.000 C 227.944 238.560,227.789 237.840,227.600 237.400 L 227.256 236.600 227.256 237.400 M89.800 239.600 C 89.646 240.510,89.611 241.344,89.721 241.454 C 89.831 241.564,90.046 240.910,90.200 240.000 C 90.354 239.090,90.389 238.256,90.279 238.146 C 90.169 238.036,89.954 238.690,89.800 239.600 M266.582 240.582 C 266.429 241.602,266.402 242.535,266.522 242.655 C 266.642 242.775,266.865 242.039,267.018 241.018 C 267.171 239.998,267.198 239.065,267.078 238.945 C 266.958 238.825,266.735 239.561,266.582 240.582 M214.689 240.000 C 214.536 240.550,214.425 241.450,214.442 242.000 C 214.468 242.861,214.526 242.814,214.858 241.660 C 215.070 240.924,215.181 240.024,215.106 239.660 C 215.008 239.194,214.886 239.293,214.689 240.000 M79.489 240.800 C 79.336 241.350,79.225 242.250,79.242 242.800 C 79.268 243.661,79.326 243.614,79.658 242.460 C 79.870 241.724,79.981 240.824,79.906 240.460 C 79.808 239.994,79.686 240.093,79.489 240.800 M228.005 240.433 C 228.013 241.204,229.518 245.923,229.564 245.320 C 229.610 244.710,228.481 240.348,228.206 240.073 C 228.093 239.959,228.002 240.122,228.005 240.433 M216.464 241.419 C 216.209 241.979,216.019 242.924,216.041 243.519 C 216.077 244.458,216.135 244.403,216.481 243.100 C 216.700 242.275,217.042 241.600,217.240 241.600 C 217.438 241.600,217.600 241.330,217.600 241.000 C 217.600 240.064,216.977 240.294,216.464 241.419 M247.361 254.300 C 242.795 261.945,237.449 270.900,235.480 274.200 C 233.511 277.500,231.550 280.695,231.122 281.300 C 230.695 281.905,230.503 282.400,230.694 282.400 C 230.964 282.400,244.584 260.108,247.600 254.730 C 251.194 248.321,255.486 241.627,255.900 241.784 C 256.195 241.897,256.400 241.652,256.400 241.187 C 256.400 239.410,255.297 241.009,247.361 254.300 M337.850 241.650 C 337.220 244.801,337.172 244.758,341.468 244.886 C 346.917 245.047,347.258 246.000,341.866 246.000 C 337.649 246.000,336.800 246.187,336.800 247.119 C 336.800 247.680,336.858 247.676,337.300 247.086 C 337.697 246.556,338.621 246.397,341.800 246.310 C 345.497 246.208,345.800 246.139,345.800 245.400 C 345.800 244.662,345.495 244.591,341.865 244.485 L 337.929 244.370 338.202 242.385 C 338.503 240.200,338.247 239.666,337.850 241.650 M68.299 242.666 C 68.135 243.583,67.785 244.405,67.520 244.493 C 67.163 244.612,67.157 244.726,67.500 244.938 C 68.159 245.346,68.871 243.798,68.722 242.282 C 68.600 241.040,68.587 241.052,68.299 242.666 M66.412 242.400 C 66.412 242.730,66.587 243.270,66.800 243.600 C 67.145 244.133,67.188 244.133,67.188 243.600 C 67.188 243.270,67.013 242.730,66.800 242.400 C 66.455 241.867,66.412 241.867,66.412 242.400 M88.978 243.378 C 88.827 244.181,88.804 244.937,88.926 245.060 C 89.048 245.182,89.272 244.625,89.422 243.822 C 89.573 243.019,89.596 242.263,89.474 242.140 C 89.352 242.018,89.128 242.575,88.978 243.378 M217.656 242.600 C 217.656 243.040,217.811 243.760,218.000 244.200 L 218.344 245.000 218.344 244.200 C 218.344 243.760,218.189 243.040,218.000 242.600 L 217.656 241.800 217.656 242.600 M255.489 243.600 C 255.336 244.150,255.225 245.050,255.242 245.600 C 255.268 246.461,255.326 246.414,255.658 245.260 C 255.870 244.524,255.981 243.624,255.906 243.260 C 255.808 242.794,255.686 242.893,255.489 243.600 M38.414 244.162 C 37.858 245.624,37.437 247.445,37.712 247.199 C 38.067 246.880,39.183 243.450,38.993 243.260 C 38.899 243.166,38.639 243.572,38.414 244.162 M118.800 243.574 C 118.075 243.818,118.600 243.913,120.705 243.919 C 122.924 243.925,123.946 244.125,125.028 244.764 C 126.579 245.679,127.870 245.818,128.800 245.170 C 129.250 244.856,129.087 244.813,128.152 244.996 C 127.273 245.168,126.401 244.979,125.208 244.358 C 123.373 243.401,120.397 243.037,118.800 243.574 M132.000 243.635 C 131.515 243.986,131.573 244.031,132.301 243.872 C 132.872 243.747,133.353 243.917,133.616 244.337 C 133.979 244.919,134.015 244.903,133.910 244.205 C 133.772 243.281,132.863 243.011,132.000 243.635 M155.200 243.583 C 154.607 243.763,155.991 243.886,158.600 243.886 C 161.209 243.886,162.593 243.763,162.000 243.583 C 161.450 243.416,159.920 243.280,158.600 243.280 C 157.280 243.280,155.750 243.416,155.200 243.583 M188.400 243.583 C 187.807 243.763,189.191 243.886,191.800 243.886 C 194.409 243.886,195.793 243.763,195.200 243.583 C 194.650 243.416,193.120 243.280,191.800 243.280 C 190.480 243.280,188.950 243.416,188.400 243.583 M213.782 244.982 C 213.629 246.002,213.602 246.935,213.722 247.055 C 213.842 247.175,214.065 246.439,214.218 245.418 C 214.371 244.398,214.398 243.465,214.278 243.345 C 214.158 243.225,213.935 243.961,213.782 244.982 M265.782 244.982 C 265.629 246.002,265.602 246.935,265.722 247.055 C 265.842 247.175,266.065 246.439,266.218 245.418 C 266.371 244.398,266.398 243.465,266.278 243.345 C 266.158 243.225,265.935 243.961,265.782 244.982 M297.400 243.600 C 296.855 243.834,297.557 243.951,299.600 243.966 C 301.676 243.981,302.415 243.868,302.000 243.600 C 301.270 243.128,298.498 243.128,297.400 243.600 M308.800 244.216 C 306.158 245.353,305.479 245.401,304.173 244.546 C 303.624 244.186,303.079 243.987,302.963 244.104 C 302.681 244.386,305.139 245.600,305.992 245.600 C 306.361 245.600,307.770 245.150,309.123 244.600 C 312.143 243.373,311.994 243.368,312.028 244.700 C 312.053 245.657,312.098 245.696,312.373 245.000 C 313.155 243.024,312.106 242.794,308.800 244.216 M366.600 243.591 C 365.843 243.777,366.949 243.891,369.600 243.897 C 372.142 243.904,373.484 243.780,373.000 243.582 C 372.020 243.183,368.233 243.188,366.600 243.591 M114.400 245.122 C 109.553 247.538,104.925 251.554,101.404 256.400 C 99.431 259.115,97.419 262.753,97.723 263.056 C 97.820 263.153,98.396 262.280,99.003 261.116 C 102.509 254.391,108.871 248.168,115.260 245.212 C 116.657 244.566,117.530 244.034,117.200 244.031 C 116.870 244.028,115.610 244.519,114.400 245.122 M152.200 244.400 C 151.885 244.909,152.812 244.909,153.600 244.400 C 154.088 244.085,154.036 244.011,153.324 244.006 C 152.842 244.003,152.336 244.180,152.200 244.400 M165.191 245.116 C 170.506 247.793,170.733 254.278,165.518 254.460 C 164.238 254.505,164.093 254.564,164.948 254.691 C 170.882 255.576,171.379 247.748,165.577 244.788 C 164.727 244.355,163.800 244.003,163.516 244.007 C 163.232 244.010,163.986 244.510,165.191 245.116 M185.400 244.400 C 185.108 244.873,185.499 244.873,186.600 244.400 C 187.371 244.069,187.369 244.055,186.524 244.028 C 186.042 244.013,185.536 244.180,185.400 244.400 M198.391 245.116 C 203.752 247.816,203.935 254.400,198.649 254.400 C 196.395 254.400,194.770 252.920,193.792 249.976 C 193.422 248.861,193.023 248.043,192.907 248.160 C 192.453 248.614,194.564 252.867,195.730 253.848 C 199.117 256.698,203.894 253.609,202.736 249.318 C 202.107 246.992,198.695 243.981,196.716 244.007 C 196.432 244.010,197.186 244.510,198.391 245.116 M294.600 244.400 C 294.285 244.909,295.212 244.909,296.000 244.400 C 296.488 244.085,296.436 244.011,295.724 244.006 C 295.242 244.003,294.736 244.180,294.600 244.400 M363.600 244.276 C 360.056 245.533,356.048 248.393,353.465 251.509 C 351.745 253.584,349.426 257.559,349.748 257.881 C 349.876 258.009,350.103 257.774,350.252 257.357 C 352.024 252.394,357.839 247.092,364.400 244.456 C 365.416 244.048,364.699 243.886,363.600 244.276 M375.197 244.637 C 377.106 245.465,378.367 246.700,379.244 248.600 C 379.650 249.480,379.986 249.895,379.991 249.523 C 380.015 247.653,376.354 243.975,374.509 244.016 C 374.112 244.024,374.416 244.298,375.197 244.637 M78.578 245.778 C 78.427 246.581,78.404 247.337,78.526 247.460 C 78.648 247.582,78.872 247.025,79.022 246.222 C 79.173 245.419,79.196 244.663,79.074 244.540 C 78.952 244.418,78.728 244.975,78.578 245.778 M149.131 246.113 C 147.257 247.535,144.783 250.889,144.828 251.945 C 144.844 252.305,145.196 251.836,145.611 250.902 C 146.414 249.095,149.711 245.600,150.613 245.600 C 150.910 245.600,151.264 245.420,151.400 245.200 C 151.895 244.399,150.821 244.831,149.131 246.113 M155.190 245.700 C 154.459 246.195,153.779 246.870,153.678 247.200 C 153.577 247.530,154.023 247.305,154.669 246.700 C 156.553 244.936,158.237 245.159,159.188 247.300 C 159.604 248.235,159.956 248.766,159.972 248.480 C 160.118 245.797,157.389 244.210,155.190 245.700 M183.400 245.264 C 182.135 245.960,179.588 248.496,178.967 249.680 C 177.980 251.560,178.353 251.430,179.603 249.460 C 180.320 248.328,181.611 247.063,182.803 246.322 C 183.901 245.639,184.800 245.017,184.800 244.940 C 184.800 244.683,184.208 244.820,183.400 245.264 M188.757 245.399 C 187.638 246.007,186.392 247.647,186.412 248.486 C 186.419 248.769,186.623 248.640,186.867 248.200 C 188.424 245.385,191.054 244.641,192.171 246.700 C 192.570 247.436,192.773 247.578,192.784 247.129 C 192.823 245.511,190.437 244.486,188.757 245.399 M215.382 246.582 C 215.229 247.602,215.202 248.535,215.322 248.655 C 215.442 248.775,215.665 248.039,215.818 247.018 C 215.971 245.998,215.998 245.065,215.878 244.945 C 215.758 244.825,215.535 245.561,215.382 246.582 M290.800 246.284 C 283.970 250.149,274.256 263.201,274.423 268.287 C 274.436 268.679,274.855 267.830,275.353 266.400 C 278.336 257.837,284.885 249.845,291.900 246.206 C 293.055 245.606,294.000 245.045,294.000 244.958 C 294.000 244.587,293.248 244.898,290.800 246.284 M321.700 245.212 C 319.937 245.921,320.776 246.400,323.780 246.400 C 326.196 246.400,326.837 246.532,327.168 247.100 C 327.530 247.721,327.577 247.726,327.588 247.143 C 327.604 246.276,326.807 246.008,324.067 245.961 L 321.800 245.921 323.600 245.400 L 325.400 244.879 324.000 244.865 C 323.230 244.857,322.195 245.013,321.700 245.212 M132.978 246.578 C 132.827 247.381,132.804 248.137,132.926 248.260 C 133.048 248.382,133.272 247.825,133.422 247.022 C 133.573 246.219,133.596 245.463,133.474 245.340 C 133.352 245.218,133.128 245.775,132.978 246.578 M218.456 245.800 C 218.456 246.240,218.611 246.960,218.800 247.400 L 219.144 248.200 219.144 247.400 C 219.144 246.960,218.989 246.240,218.800 245.800 L 218.456 245.000 218.456 245.800 M88.178 246.978 C 88.027 247.781,88.004 248.537,88.126 248.660 C 88.248 248.782,88.472 248.225,88.622 247.422 C 88.773 246.619,88.796 245.863,88.674 245.740 C 88.552 245.618,88.328 246.175,88.178 246.978 M114.892 246.629 C 111.536 248.301,106.385 255.005,106.404 257.675 C 106.406 257.964,107.112 256.760,107.972 255.000 C 110.656 249.510,114.244 246.424,118.000 246.373 C 119.599 246.352,119.982 246.250,119.400 246.000 C 118.047 245.418,117.039 245.559,114.892 246.629 M294.600 246.091 C 291.596 247.162,287.981 250.858,286.082 254.800 C 285.314 256.396,283.998 260.466,284.025 261.163 C 284.039 261.513,284.536 260.358,285.131 258.597 C 288.318 249.143,294.841 244.111,299.905 247.199 C 301.123 247.941,301.196 248.109,300.999 249.697 C 300.843 250.945,300.888 251.186,301.165 250.600 C 302.641 247.481,298.561 244.679,294.600 246.091 M365.478 247.030 C 362.856 248.953,358.426 255.580,358.412 257.600 C 358.409 257.930,359.124 256.731,360.001 254.936 C 361.841 251.165,364.865 247.648,367.304 246.440 C 368.374 245.911,368.705 245.604,368.200 245.610 C 367.760 245.616,366.535 246.254,365.478 247.030 M371.100 246.396 C 371.815 246.832,372.400 247.401,372.400 247.661 C 372.400 247.921,372.521 248.013,372.668 247.865 C 373.050 247.484,371.187 245.600,370.430 245.601 C 370.080 245.602,370.379 245.956,371.100 246.396 M229.656 246.600 C 229.656 247.040,229.811 247.760,230.000 248.200 L 230.344 249.000 230.344 248.200 C 230.344 247.760,230.189 247.040,230.000 246.600 L 229.656 245.800 229.656 246.600 M311.378 247.378 C 311.227 248.181,311.204 248.937,311.326 249.060 C 311.448 249.182,311.672 248.625,311.822 247.822 C 311.973 247.019,311.996 246.263,311.874 246.140 C 311.752 246.018,311.528 246.575,311.378 247.378 M121.300 247.246 C 122.074 247.824,122.410 248.442,122.434 249.333 L 122.469 250.600 122.837 249.400 C 123.214 248.168,121.922 246.380,120.678 246.413 C 120.415 246.420,120.695 246.795,121.300 247.246 M254.689 248.000 C 254.536 248.550,254.425 249.450,254.442 250.000 C 254.468 250.861,254.526 250.814,254.858 249.660 C 255.070 248.924,255.181 248.024,255.106 247.660 C 255.008 247.194,254.886 247.293,254.689 248.000 M37.049 248.215 C 36.912 248.573,36.816 249.256,36.836 249.733 C 36.862 250.347,36.985 250.208,37.259 249.256 C 37.657 247.872,37.494 247.058,37.049 248.215 M213.019 249.127 C 212.855 250.077,212.817 250.950,212.934 251.068 C 213.226 251.359,213.726 248.573,213.500 247.921 C 213.400 247.635,213.184 248.177,213.019 249.127 M264.982 249.382 C 264.829 250.402,264.802 251.335,264.922 251.455 C 265.042 251.575,265.265 250.839,265.418 249.818 C 265.571 248.798,265.598 247.865,265.478 247.745 C 265.358 247.625,265.135 248.361,264.982 249.382 M153.043 248.633 C 151.631 252.311,153.646 256.009,159.996 261.396 C 163.707 264.545,164.959 266.164,165.824 268.930 C 166.166 270.024,166.356 270.288,166.373 269.696 C 166.446 267.239,164.511 264.659,159.294 260.257 C 154.556 256.260,153.435 254.437,153.435 250.724 C 153.435 247.793,153.412 247.670,153.043 248.633 M326.578 249.378 C 326.427 250.181,326.404 250.937,326.526 251.060 C 326.648 251.182,326.872 250.625,327.022 249.822 C 327.173 249.019,327.196 248.263,327.074 248.140 C 326.952 248.018,326.728 248.575,326.578 249.378 M336.178 249.378 C 336.027 250.181,336.004 250.937,336.126 251.060 C 336.248 251.182,336.472 250.625,336.622 249.822 C 336.773 249.019,336.796 248.263,336.674 248.140 C 336.552 248.018,336.328 248.575,336.178 249.378 M77.778 249.778 C 77.627 250.581,77.604 251.337,77.726 251.460 C 77.848 251.582,78.072 251.025,78.222 250.222 C 78.373 249.419,78.396 248.663,78.274 248.540 C 78.152 248.418,77.928 248.975,77.778 249.778 M219.256 249.000 C 219.256 249.440,219.411 250.160,219.600 250.600 L 219.944 251.400 219.944 250.600 C 219.944 250.160,219.789 249.440,219.600 249.000 L 219.256 248.200 219.256 249.000 M372.920 250.400 C 372.920 251.610,372.995 252.105,373.087 251.500 C 373.178 250.895,373.178 249.905,373.087 249.300 C 372.995 248.695,372.920 249.190,372.920 250.400 M132.178 250.178 C 132.027 250.981,132.004 251.737,132.126 251.860 C 132.248 251.982,132.472 251.425,132.622 250.622 C 132.773 249.819,132.796 249.063,132.674 248.940 C 132.552 248.818,132.328 249.375,132.178 250.178 M160.023 249.516 C 159.962 250.885,162.831 254.903,163.437 254.297 C 163.564 254.169,163.276 253.855,162.796 253.598 C 162.317 253.341,161.502 252.202,160.985 251.066 C 160.469 249.930,160.036 249.232,160.023 249.516 M214.582 250.982 C 214.429 252.002,214.402 252.935,214.522 253.055 C 214.642 253.175,214.865 252.439,215.018 251.418 C 215.171 250.398,215.198 249.465,215.078 249.345 C 214.958 249.225,214.735 249.961,214.582 250.982 M230.400 249.514 C 230.400 250.173,231.553 254.487,231.794 254.727 C 232.147 255.081,232.023 254.126,231.406 251.759 C 230.832 249.554,230.400 248.591,230.400 249.514 M87.378 250.978 C 87.227 251.781,87.204 252.537,87.326 252.660 C 87.448 252.782,87.672 252.225,87.822 251.422 C 87.973 250.619,87.996 249.863,87.874 249.740 C 87.752 249.618,87.528 250.175,87.378 250.978 M186.101 251.000 C 186.105 251.880,186.187 252.193,186.283 251.695 C 186.379 251.198,186.375 250.478,186.275 250.095 C 186.175 249.713,186.096 250.120,186.101 251.000 M310.578 250.978 C 310.427 251.781,310.404 252.537,310.526 252.660 C 310.648 252.782,310.872 252.225,311.022 251.422 C 311.173 250.619,311.196 249.863,311.074 249.740 C 310.952 249.618,310.728 250.175,310.578 250.978 M25.873 250.553 C 25.723 250.945,25.611 251.566,25.625 251.933 C 25.642 252.375,25.781 252.274,26.037 251.634 C 26.249 251.103,26.361 250.482,26.285 250.254 C 26.209 250.027,26.024 250.161,25.873 250.553 M36.297 251.600 C 36.140 252.150,36.027 253.230,36.046 254.000 L 36.080 255.400 36.455 253.800 C 36.905 251.877,36.767 249.958,36.297 251.600 M121.778 252.178 C 121.627 252.981,121.604 253.737,121.726 253.860 C 121.848 253.982,122.072 253.425,122.222 252.622 C 122.373 251.819,122.396 251.063,122.274 250.940 C 122.152 250.818,121.928 251.375,121.778 252.178 M253.782 252.982 C 253.629 254.002,253.602 254.935,253.722 255.055 C 253.842 255.175,254.065 254.439,254.218 253.418 C 254.371 252.398,254.398 251.465,254.278 251.345 C 254.158 251.225,253.935 251.961,253.782 252.982 M177.849 252.215 C 177.712 252.573,177.620 253.436,177.644 254.133 C 177.682 255.237,177.733 255.171,178.036 253.625 C 178.393 251.805,178.294 251.057,177.849 252.215 M220.000 251.914 C 220.000 252.573,221.153 256.887,221.394 257.127 C 221.747 257.481,221.623 256.526,221.006 254.159 C 220.432 251.954,220.000 250.991,220.000 251.914 M300.178 252.978 C 300.027 253.781,300.004 254.537,300.126 254.660 C 300.248 254.782,300.472 254.225,300.622 253.422 C 300.773 252.619,300.796 251.863,300.674 251.740 C 300.552 251.618,300.328 252.175,300.178 252.978 M325.778 252.978 C 325.627 253.781,325.604 254.537,325.726 254.660 C 325.848 254.782,326.072 254.225,326.222 253.422 C 326.373 252.619,326.396 251.863,326.274 251.740 C 326.152 251.618,325.928 252.175,325.778 252.978 M77.000 253.600 C 76.846 254.510,76.811 255.344,76.921 255.454 C 77.031 255.564,77.246 254.910,77.400 254.000 C 77.554 253.090,77.589 252.256,77.479 252.146 C 77.369 252.036,77.154 252.690,77.000 253.600 M212.289 252.800 C 212.136 253.350,212.025 254.250,212.042 254.800 C 212.068 255.661,212.126 255.614,212.458 254.460 C 212.670 253.724,212.781 252.824,212.706 252.460 C 212.608 251.994,212.486 252.093,212.289 252.800 M264.182 253.782 C 264.029 254.802,264.002 255.735,264.122 255.855 C 264.242 255.975,264.465 255.239,264.618 254.218 C 264.771 253.198,264.798 252.265,264.678 252.145 C 264.558 252.025,264.335 252.761,264.182 253.782 M335.378 253.378 C 335.227 254.181,335.204 254.937,335.326 255.060 C 335.448 255.182,335.672 254.625,335.822 253.822 C 335.973 253.019,335.996 252.263,335.874 252.140 C 335.752 252.018,335.528 252.575,335.378 253.378 M131.400 253.600 C 131.248 254.291,131.214 254.947,131.324 255.057 C 131.434 255.167,131.648 254.691,131.800 254.000 C 131.952 253.309,131.986 252.653,131.876 252.543 C 131.766 252.433,131.552 252.909,131.400 253.600 M25.089 253.600 C 24.936 254.150,24.827 255.140,24.846 255.800 C 24.877 256.892,24.914 256.858,25.252 255.411 C 25.675 253.606,25.531 252.011,25.089 253.600 M144.289 254.131 C 144.170 254.863,144.218 256.078,144.395 256.831 C 144.668 257.989,144.724 257.784,144.759 255.500 C 144.804 252.559,144.627 252.045,144.289 254.131 M186.415 253.116 C 186.365 254.883,189.093 258.034,194.738 262.730 C 195.882 263.681,197.352 265.391,198.005 266.530 C 199.226 268.659,199.667 268.659,198.604 266.529 C 197.998 265.313,194.775 262.115,190.720 258.706 C 189.268 257.485,188.104 256.063,187.448 254.706 C 186.888 253.548,186.423 252.832,186.415 253.116 M372.254 253.800 C 371.468 257.001,368.029 260.431,363.400 262.628 C 361.860 263.359,360.843 263.967,361.139 263.979 C 364.625 264.116,373.320 256.061,372.698 253.270 C 372.602 252.839,372.443 253.028,372.254 253.800 M86.578 254.578 C 86.427 255.381,86.404 256.137,86.526 256.260 C 86.648 256.382,86.872 255.825,87.022 255.022 C 87.173 254.219,87.196 253.463,87.074 253.340 C 86.952 253.218,86.728 253.775,86.578 254.578 M309.778 254.578 C 309.627 255.381,309.604 256.137,309.726 256.260 C 309.848 256.382,310.072 255.825,310.222 255.022 C 310.373 254.219,310.396 253.463,310.274 253.340 C 310.152 253.218,309.928 253.775,309.778 254.578 M379.305 254.271 C 378.272 257.235,373.565 260.974,368.006 263.247 C 366.252 263.964,364.896 264.629,364.992 264.725 C 365.168 264.901,367.403 264.083,370.000 262.892 C 374.853 260.667,380.499 255.298,379.895 253.484 C 379.810 253.229,379.544 253.584,379.305 254.271 M213.782 255.382 C 213.629 256.402,213.602 257.335,213.722 257.455 C 213.842 257.575,214.065 256.839,214.218 255.818 C 214.371 254.798,214.398 253.865,214.278 253.745 C 214.158 253.625,213.935 254.361,213.782 255.382 M120.978 255.778 C 120.827 256.581,120.804 257.337,120.926 257.460 C 121.048 257.582,121.272 257.025,121.422 256.222 C 121.573 255.419,121.596 254.663,121.474 254.540 C 121.352 254.418,121.128 254.975,120.978 255.778 M232.056 255.800 C 232.056 256.240,232.211 256.960,232.400 257.400 L 232.744 258.200 232.744 257.400 C 232.744 256.960,232.589 256.240,232.400 255.800 L 232.056 255.000 232.056 255.800 M299.378 256.578 C 299.227 257.381,299.204 258.137,299.326 258.260 C 299.448 258.382,299.672 257.825,299.822 257.022 C 299.973 256.219,299.996 255.463,299.874 255.340 C 299.752 255.218,299.528 255.775,299.378 256.578 M324.978 256.578 C 324.827 257.381,324.804 258.137,324.926 258.260 C 325.048 258.382,325.272 257.825,325.422 257.022 C 325.573 256.219,325.596 255.463,325.474 255.340 C 325.352 255.218,325.128 255.775,324.978 256.578 M130.622 257.022 C 130.472 257.825,130.438 258.572,130.548 258.682 C 130.658 258.792,130.872 258.225,131.022 257.422 C 131.173 256.619,131.206 255.873,131.096 255.763 C 130.986 255.653,130.773 256.219,130.622 257.022 M177.634 256.851 C 177.562 259.951,179.673 263.085,184.615 267.213 C 186.527 268.810,188.611 270.935,189.246 271.936 C 190.012 273.145,190.400 273.500,190.400 272.993 C 190.400 272.541,188.298 270.188,185.238 267.215 C 179.391 261.534,178.822 260.766,178.150 257.642 C 177.723 255.660,177.663 255.569,177.634 256.851 M252.982 257.382 C 252.829 258.402,252.802 259.335,252.922 259.455 C 253.042 259.575,253.265 258.839,253.418 257.818 C 253.571 256.798,253.598 255.865,253.478 255.745 C 253.358 255.625,253.135 256.361,252.982 257.382 M334.619 257.127 C 334.455 258.077,334.417 258.950,334.534 259.068 C 334.826 259.359,335.326 256.573,335.100 255.921 C 335.000 255.635,334.784 256.177,334.619 257.127 M76.289 256.800 C 76.136 257.350,76.025 258.250,76.042 258.800 C 76.068 259.661,76.126 259.614,76.458 258.460 C 76.670 257.724,76.781 256.824,76.706 256.460 C 76.608 255.994,76.486 256.093,76.289 256.800 M211.382 257.782 C 211.229 258.802,211.202 259.735,211.322 259.855 C 211.442 259.975,211.665 259.239,211.818 258.218 C 211.971 257.198,211.998 256.265,211.878 256.145 C 211.758 256.025,211.535 256.761,211.382 257.782 M35.750 260.600 C 35.751 263.020,35.816 263.958,35.896 262.685 C 35.976 261.412,35.975 259.432,35.894 258.285 C 35.814 257.138,35.749 258.180,35.750 260.600 M85.819 258.327 C 85.655 259.277,85.617 260.150,85.734 260.268 C 86.026 260.559,86.526 257.773,86.300 257.121 C 86.200 256.835,85.984 257.377,85.819 258.327 M263.419 258.327 C 263.255 259.277,263.217 260.150,263.334 260.268 C 263.626 260.559,264.126 257.773,263.900 257.121 C 263.800 256.835,263.584 257.377,263.419 258.327 M309.000 258.000 C 308.848 258.691,308.814 259.347,308.924 259.457 C 309.034 259.567,309.248 259.091,309.400 258.400 C 309.552 257.709,309.586 257.053,309.476 256.943 C 309.366 256.833,309.152 257.309,309.000 258.000 M24.537 260.600 C 24.539 262.360,24.609 263.030,24.693 262.089 C 24.778 261.149,24.777 259.709,24.691 258.889 C 24.605 258.070,24.536 258.840,24.537 260.600 M221.634 258.400 C 221.622 258.950,221.787 259.670,222.000 260.000 C 222.509 260.787,222.509 259.384,222.000 258.200 C 221.685 257.467,221.654 257.484,221.634 258.400 M120.178 259.378 C 120.027 260.181,120.004 260.937,120.126 261.060 C 120.248 261.182,120.472 260.625,120.622 259.822 C 120.773 259.019,120.796 258.263,120.674 258.140 C 120.552 258.018,120.328 258.575,120.178 259.378 M212.982 259.782 C 212.829 260.802,212.802 261.735,212.922 261.855 C 213.042 261.975,213.265 261.239,213.418 260.218 C 213.571 259.198,213.598 258.265,213.478 258.145 C 213.358 258.025,213.135 258.761,212.982 259.782 M105.888 258.933 C 105.410 260.149,105.524 261.173,106.039 260.287 C 106.267 259.896,106.391 259.266,106.315 258.887 C 106.188 258.260,106.151 258.264,105.888 258.933 M144.800 258.737 C 144.800 260.594,147.841 264.258,153.058 268.686 C 156.689 271.769,158.040 275.340,156.804 278.589 C 155.668 281.577,151.474 282.795,150.229 280.500 C 149.830 279.764,149.627 279.622,149.616 280.071 C 149.589 281.200,151.611 282.498,152.973 282.225 C 158.653 281.089,159.293 273.862,154.133 269.119 C 148.141 263.613,146.725 262.107,145.806 260.262 C 145.253 259.151,144.800 258.465,144.800 258.737 M232.856 259.000 C 232.856 259.440,233.011 260.160,233.200 260.600 L 233.544 261.400 233.544 260.600 C 233.544 260.160,233.389 259.440,233.200 259.000 L 232.856 258.200 232.856 259.000 M348.977 259.043 C 348.844 259.459,348.570 260.213,348.367 260.719 C 348.165 261.224,348.016 262.034,348.036 262.519 C 348.057 263.003,348.409 262.328,348.820 261.017 C 349.231 259.706,349.489 258.556,349.393 258.460 C 349.297 258.364,349.110 258.626,348.977 259.043 M357.873 258.953 C 357.723 259.345,357.611 259.966,357.625 260.333 C 357.642 260.775,357.781 260.674,358.037 260.034 C 358.249 259.503,358.361 258.882,358.285 258.654 C 358.209 258.427,358.024 258.561,357.873 258.953 M298.800 258.950 C 298.800 259.106,298.520 260.590,298.177 262.249 C 297.835 263.907,297.620 265.460,297.700 265.701 C 297.780 265.941,298.175 264.571,298.577 262.656 C 298.979 260.741,299.193 259.060,299.054 258.920 C 298.914 258.781,298.800 258.794,298.800 258.950 M324.200 260.400 C 324.046 261.310,324.011 262.144,324.121 262.254 C 324.231 262.364,324.446 261.710,324.600 260.800 C 324.754 259.890,324.789 259.056,324.679 258.946 C 324.569 258.836,324.354 259.490,324.200 260.400 M129.778 260.578 C 129.627 261.381,129.604 262.137,129.726 262.260 C 129.848 262.382,130.072 261.825,130.222 261.022 C 130.373 260.219,130.396 259.463,130.274 259.340 C 130.152 259.218,129.928 259.775,129.778 260.578 M333.889 260.400 C 333.736 260.950,333.625 261.850,333.642 262.400 C 333.668 263.261,333.726 263.214,334.058 262.060 C 334.270 261.324,334.381 260.424,334.306 260.060 C 334.208 259.594,334.086 259.693,333.889 260.400 M75.378 261.378 C 75.227 262.181,75.204 262.937,75.326 263.060 C 75.448 263.182,75.672 262.625,75.822 261.822 C 75.973 261.019,75.996 260.263,75.874 260.140 C 75.752 260.018,75.528 260.575,75.378 261.378 M252.182 261.782 C 252.029 262.802,252.002 263.735,252.122 263.855 C 252.242 263.975,252.465 263.239,252.618 262.218 C 252.771 261.198,252.798 260.265,252.678 260.145 C 252.558 260.025,252.335 260.761,252.182 261.782 M308.222 261.422 C 308.072 262.225,308.038 262.972,308.148 263.082 C 308.258 263.192,308.472 262.625,308.622 261.822 C 308.773 261.019,308.806 260.273,308.696 260.163 C 308.586 260.053,308.373 260.619,308.222 261.422 M210.619 261.927 C 210.455 262.877,210.417 263.750,210.534 263.868 C 210.826 264.159,211.326 261.373,211.100 260.721 C 211.000 260.435,210.784 260.977,210.619 261.927 M84.978 262.178 C 84.827 262.981,84.804 263.737,84.926 263.860 C 85.048 263.982,85.272 263.425,85.422 262.622 C 85.573 261.819,85.596 261.063,85.474 260.940 C 85.352 260.818,85.128 261.375,84.978 262.178 M222.456 261.400 C 222.456 261.840,222.611 262.560,222.800 263.000 L 223.144 263.800 223.144 263.000 C 223.144 262.560,222.989 261.840,222.800 261.400 L 222.456 260.600 222.456 261.400 M104.988 262.938 C 104.839 263.935,104.799 264.986,104.900 265.275 C 105.000 265.564,105.218 264.843,105.382 263.674 C 105.547 262.505,105.587 261.454,105.471 261.338 C 105.355 261.222,105.138 261.942,104.988 262.938 M262.619 262.727 C 262.455 263.677,262.417 264.550,262.534 264.668 C 262.826 264.959,263.326 262.173,263.100 261.521 C 263.000 261.235,262.784 261.777,262.619 262.727 M119.378 262.978 C 119.227 263.781,119.204 264.537,119.326 264.660 C 119.448 264.782,119.672 264.225,119.822 263.422 C 119.973 262.619,119.996 261.863,119.874 261.740 C 119.752 261.618,119.528 262.175,119.378 262.978 M233.605 262.033 C 233.613 262.804,235.118 267.523,235.164 266.920 C 235.210 266.310,234.081 261.948,233.806 261.673 C 233.693 261.559,233.602 261.722,233.605 262.033 M357.063 262.941 C 356.748 264.485,356.867 265.007,357.475 264.742 C 357.654 264.664,357.705 263.880,357.589 263.000 L 357.378 261.400 357.063 262.941 M212.182 264.182 C 212.029 265.202,212.002 266.135,212.122 266.255 C 212.242 266.375,212.465 265.639,212.618 264.618 C 212.771 263.598,212.798 262.665,212.678 262.545 C 212.558 262.425,212.335 263.161,212.182 264.182 M283.450 263.650 C 282.036 270.720,283.937 276.851,287.734 277.467 C 291.232 278.034,297.636 272.922,296.690 270.317 C 296.587 270.033,296.369 270.475,296.207 271.300 C 295.677 273.986,291.542 276.892,288.251 276.892 C 284.441 276.892,283.205 273.936,283.754 266.134 C 284.020 262.343,283.903 261.385,283.450 263.650 M128.978 264.178 C 128.827 264.981,128.804 265.737,128.926 265.860 C 129.048 265.982,129.272 265.425,129.422 264.622 C 129.573 263.819,129.596 263.063,129.474 262.940 C 129.352 262.818,129.128 263.375,128.978 264.178 M323.378 264.178 C 323.227 264.981,323.194 265.727,323.304 265.837 C 323.414 265.947,323.627 265.381,323.778 264.578 C 323.928 263.775,323.962 263.028,323.852 262.918 C 323.742 262.808,323.528 263.375,323.378 264.178 M74.600 265.200 C 74.446 266.110,74.411 266.944,74.521 267.054 C 74.631 267.164,74.846 266.510,75.000 265.600 C 75.154 264.690,75.189 263.856,75.079 263.746 C 74.969 263.636,74.754 264.290,74.600 265.200 M307.378 264.978 C 307.227 265.781,307.204 266.537,307.326 266.660 C 307.448 266.782,307.672 266.225,307.822 265.422 C 307.973 264.619,307.996 263.863,307.874 263.740 C 307.752 263.618,307.528 264.175,307.378 264.978 M332.978 264.978 C 332.827 265.781,332.804 266.537,332.926 266.660 C 333.048 266.782,333.272 266.225,333.422 265.422 C 333.573 264.619,333.596 263.863,333.474 263.740 C 333.352 263.618,333.128 264.175,332.978 264.978 M347.450 264.850 C 347.118 266.509,347.181 272.010,347.542 272.926 C 347.700 273.325,347.829 271.390,347.829 268.626 C 347.829 263.138,347.816 263.018,347.450 264.850 M223.256 264.600 C 223.256 265.040,223.411 265.760,223.600 266.200 L 223.944 267.000 223.944 266.200 C 223.944 265.760,223.789 265.040,223.600 264.600 L 223.256 263.800 223.256 264.600 M358.800 264.400 C 358.267 264.745,358.267 264.788,358.800 264.788 C 359.130 264.788,359.670 264.613,360.000 264.400 C 360.533 264.055,360.533 264.012,360.000 264.012 C 359.670 264.012,359.130 264.187,358.800 264.400 M84.200 266.000 C 84.046 266.910,84.011 267.744,84.121 267.854 C 84.231 267.964,84.446 267.310,84.600 266.400 C 84.754 265.490,84.789 264.656,84.679 264.546 C 84.569 264.436,84.354 265.090,84.200 266.000 M251.382 266.182 C 251.229 267.202,251.202 268.135,251.322 268.255 C 251.442 268.375,251.665 267.639,251.818 266.618 C 251.971 265.598,251.998 264.665,251.878 264.545 C 251.758 264.425,251.535 265.161,251.382 266.182 M24.839 265.600 C 24.628 272.645,34.832 283.403,41.509 283.177 C 41.889 283.164,41.020 282.744,39.578 282.244 C 31.928 279.591,27.545 274.953,25.609 267.463 C 25.202 265.888,24.855 265.050,24.839 265.600 M209.889 265.600 C 209.736 266.150,209.625 267.050,209.642 267.600 C 209.668 268.461,209.726 268.414,210.058 267.260 C 210.270 266.524,210.381 265.624,210.306 265.260 C 210.208 264.794,210.086 264.893,209.889 265.600 M362.600 265.200 L 361.800 265.544 362.600 265.566 C 363.040 265.578,363.670 265.413,364.000 265.200 C 364.795 264.686,363.796 264.686,362.600 265.200 M118.689 266.000 C 118.536 266.550,118.425 267.450,118.442 268.000 C 118.468 268.861,118.526 268.814,118.858 267.660 C 119.070 266.924,119.181 266.024,119.106 265.660 C 119.008 265.194,118.886 265.293,118.689 266.000 M96.273 266.153 C 96.123 266.545,96.011 267.166,96.025 267.533 C 96.042 267.975,96.181 267.874,96.437 267.234 C 96.649 266.703,96.761 266.082,96.685 265.854 C 96.609 265.627,96.424 265.761,96.273 266.153 M261.782 267.382 C 261.629 268.402,261.602 269.335,261.722 269.455 C 261.842 269.575,262.065 268.839,262.218 267.818 C 262.371 266.798,262.398 265.865,262.278 265.745 C 262.158 265.625,261.935 266.361,261.782 267.382 M359.400 266.000 C 358.667 266.315,358.684 266.346,359.600 266.366 C 360.150 266.378,360.870 266.213,361.200 266.000 C 361.987 265.491,360.584 265.491,359.400 266.000 M36.198 267.600 C 36.417 269.737,37.176 272.557,37.457 272.276 C 37.566 272.167,37.470 271.385,37.244 270.539 C 37.017 269.693,36.648 268.280,36.423 267.400 L 36.014 265.800 36.198 267.600 M128.178 267.778 C 128.027 268.581,128.004 269.337,128.126 269.460 C 128.248 269.582,128.472 269.025,128.622 268.222 C 128.773 267.419,128.796 266.663,128.674 266.540 C 128.552 266.418,128.328 266.975,128.178 267.778 M296.978 267.778 C 296.827 268.581,296.794 269.327,296.904 269.437 C 297.014 269.547,297.227 268.981,297.378 268.178 C 297.528 267.375,297.562 266.628,297.452 266.518 C 297.342 266.408,297.128 266.975,296.978 267.778 M322.578 267.778 C 322.427 268.581,322.404 269.337,322.526 269.460 C 322.648 269.582,322.872 269.025,323.022 268.222 C 323.173 267.419,323.196 266.663,323.074 266.540 C 322.952 266.418,322.728 266.975,322.578 267.778 M356.947 266.995 C 356.821 267.322,356.898 268.267,357.118 269.095 L 357.517 270.600 357.559 268.733 C 357.583 267.649,357.810 266.782,358.100 266.665 C 358.394 266.546,358.306 266.450,357.887 266.432 C 357.496 266.414,357.072 266.668,356.947 266.995 M104.524 269.000 C 104.526 270.320,104.601 270.812,104.690 270.093 C 104.779 269.374,104.777 268.294,104.686 267.693 C 104.595 267.092,104.522 267.680,104.524 269.000 M211.382 268.582 C 211.229 269.602,211.202 270.535,211.322 270.655 C 211.442 270.775,211.665 270.039,211.818 269.018 C 211.971 267.998,211.998 267.065,211.878 266.945 C 211.758 266.825,211.535 267.561,211.382 268.582 M224.000 267.514 C 224.000 268.173,225.153 272.487,225.394 272.727 C 225.747 273.081,225.623 272.126,225.006 269.759 C 224.432 267.554,224.000 266.591,224.000 267.514 M306.578 268.578 C 306.427 269.381,306.404 270.137,306.526 270.260 C 306.648 270.382,306.872 269.825,307.022 269.022 C 307.173 268.219,307.196 267.463,307.074 267.340 C 306.952 267.218,306.728 267.775,306.578 268.578 M332.219 268.727 C 332.055 269.677,332.017 270.550,332.134 270.668 C 332.426 270.959,332.926 268.173,332.700 267.521 C 332.600 267.235,332.384 267.777,332.219 268.727 M73.889 268.400 C 73.736 268.950,73.625 269.850,73.642 270.400 C 73.668 271.261,73.726 271.214,74.058 270.060 C 74.270 269.324,74.381 268.424,74.306 268.060 C 74.208 267.594,74.086 267.693,73.889 268.400 M63.300 269.900 C 62.649 270.945,61.235 273.228,60.158 274.973 C 56.371 281.109,54.427 282.309,49.001 281.861 C 47.168 281.710,46.408 281.761,46.801 282.009 C 47.861 282.679,52.855 282.449,54.600 281.648 C 56.719 280.677,57.819 279.508,60.162 275.742 C 61.237 274.014,62.675 271.702,63.358 270.604 L 64.600 268.608 64.808 270.204 L 65.015 271.800 65.308 270.450 C 65.980 267.343,65.051 267.089,63.300 269.900 M83.378 269.778 C 83.227 270.581,83.204 271.337,83.326 271.460 C 83.448 271.582,83.672 271.025,83.822 270.222 C 83.973 269.419,83.996 268.663,83.874 268.540 C 83.752 268.418,83.528 268.975,83.378 269.778 M95.450 269.650 C 95.123 271.285,95.179 275.604,95.538 276.514 C 95.694 276.907,95.829 275.242,95.840 272.814 C 95.861 268.033,95.828 267.762,95.450 269.650 M199.289 271.600 C 199.283 274.238,199.332 274.443,199.698 273.302 C 199.984 272.411,199.986 271.471,199.705 270.302 C 199.311 268.660,199.296 268.706,199.289 271.600 M208.982 270.582 C 208.829 271.602,208.802 272.535,208.922 272.655 C 209.042 272.775,209.265 272.039,209.418 271.018 C 209.571 269.998,209.598 269.065,209.478 268.945 C 209.358 268.825,209.135 269.561,208.982 270.582 M250.582 270.582 C 250.429 271.602,250.402 272.535,250.522 272.655 C 250.642 272.775,250.865 272.039,251.018 271.018 C 251.171 269.998,251.198 269.065,251.078 268.945 C 250.958 268.825,250.735 269.561,250.582 270.582 M117.763 270.743 C 117.480 272.511,116.399 273.843,113.892 275.513 C 113.062 276.065,112.465 276.598,112.564 276.697 C 112.844 276.977,116.247 274.520,117.124 273.405 C 117.908 272.409,118.642 269.709,118.239 269.306 C 118.122 269.189,117.908 269.835,117.763 270.743 M273.875 271.500 C 273.749 272.545,273.795 274.120,273.977 275.000 C 274.255 276.345,274.315 276.042,274.354 273.100 C 274.405 269.218,274.222 268.609,273.875 271.500 M127.400 271.200 C 127.248 271.891,127.214 272.547,127.324 272.657 C 127.434 272.767,127.648 272.291,127.800 271.600 C 127.952 270.909,127.986 270.253,127.876 270.143 C 127.766 270.033,127.552 270.509,127.400 271.200 M260.982 271.782 C 260.829 272.802,260.802 273.735,260.922 273.855 C 261.042 273.975,261.265 273.239,261.418 272.218 C 261.571 271.198,261.598 270.265,261.478 270.145 C 261.358 270.025,261.135 270.761,260.982 271.782 M321.889 270.800 C 321.736 271.350,321.625 272.250,321.642 272.800 C 321.668 273.661,321.726 273.614,322.058 272.460 C 322.270 271.724,322.381 270.824,322.306 270.460 C 322.208 269.994,322.086 270.093,321.889 270.800 M305.778 272.178 C 305.627 272.981,305.604 273.737,305.726 273.860 C 305.848 273.982,306.072 273.425,306.222 272.622 C 306.373 271.819,306.396 271.063,306.274 270.940 C 306.152 270.818,305.928 271.375,305.778 272.178 M357.628 271.476 C 357.613 271.958,357.780 272.464,358.000 272.600 C 358.473 272.892,358.473 272.501,358.000 271.400 C 357.669 270.629,357.655 270.631,357.628 271.476 M141.557 271.799 C 140.469 272.390,139.200 274.030,139.200 274.845 C 139.200 275.105,139.610 274.709,140.112 273.965 C 142.405 270.563,146.362 270.879,148.055 274.600 C 148.455 275.480,148.786 275.882,148.791 275.494 C 148.829 272.443,144.470 270.216,141.557 271.799 M174.390 272.100 C 173.659 272.595,172.979 273.270,172.878 273.600 C 172.777 273.930,173.230 273.698,173.885 273.085 C 177.001 270.166,180.509 271.586,181.803 276.289 C 182.092 277.340,182.345 277.861,182.364 277.446 C 182.582 272.860,177.901 269.721,174.390 272.100 M210.582 272.982 C 210.429 274.002,210.402 274.935,210.522 275.055 C 210.642 275.175,210.865 274.439,211.018 273.418 C 211.171 272.398,211.198 271.465,211.078 271.345 C 210.958 271.225,210.735 271.961,210.582 272.982 M331.489 272.000 C 331.336 272.550,331.225 273.450,331.242 274.000 C 331.268 274.861,331.326 274.814,331.658 273.660 C 331.870 272.924,331.981 272.024,331.906 271.660 C 331.808 271.194,331.686 271.293,331.489 272.000 M374.475 272.954 C 373.526 273.910,371.816 275.159,370.675 275.731 C 369.534 276.303,368.880 276.777,369.222 276.785 C 370.085 276.806,373.498 274.613,375.300 272.880 C 377.467 270.796,377.172 272.094,374.745 275.326 C 372.364 278.496,369.369 280.891,366.110 282.231 C 364.839 282.754,364.126 283.185,364.525 283.191 C 367.746 283.233,377.600 274.451,377.600 271.538 C 377.600 270.672,376.037 271.380,374.475 272.954 M72.982 273.382 C 72.829 274.402,72.802 275.335,72.922 275.455 C 73.042 275.575,73.265 274.839,73.418 273.818 C 73.571 272.798,73.598 271.865,73.478 271.745 C 73.358 271.625,73.135 272.361,72.982 273.382 M82.600 273.600 C 82.446 274.510,82.411 275.344,82.521 275.454 C 82.631 275.564,82.846 274.910,83.000 274.000 C 83.154 273.090,83.189 272.256,83.079 272.146 C 82.969 272.036,82.754 272.690,82.600 273.600 M104.831 272.720 C 104.726 275.840,109.264 278.818,111.600 277.163 C 112.062 276.835,111.924 276.783,111.000 276.936 C 108.194 277.399,106.191 276.124,105.331 273.326 C 104.994 272.232,104.853 272.060,104.831 272.720 M64.211 274.075 C 64.049 275.106,64.002 276.186,64.106 276.475 C 64.210 276.764,64.427 276.156,64.589 275.125 C 64.751 274.094,64.798 273.014,64.694 272.725 C 64.590 272.436,64.373 273.044,64.211 274.075 M37.600 273.013 C 37.600 275.277,43.533 281.632,45.600 281.583 C 45.930 281.575,45.482 281.210,44.605 280.773 C 42.352 279.649,40.133 277.351,38.934 274.900 C 38.001 272.994,37.600 272.427,37.600 273.013 M126.588 274.937 C 125.892 279.585,127.743 280.456,131.725 277.354 C 134.581 275.129,134.489 276.089,131.576 278.923 C 128.500 281.914,126.007 283.185,123.104 283.240 C 121.556 283.269,121.264 283.355,122.000 283.564 C 124.696 284.329,128.883 282.423,132.300 278.874 C 135.531 275.518,135.156 273.986,131.786 276.771 C 128.184 279.748,126.568 279.326,127.009 275.526 C 127.321 272.835,126.976 272.352,126.588 274.937 M165.512 275.089 C 164.617 277.626,162.734 279.712,160.000 281.193 C 158.790 281.849,158.020 282.389,158.288 282.393 C 160.896 282.431,166.802 276.062,166.321 273.728 C 166.255 273.404,165.891 274.017,165.512 275.089 M208.219 274.727 C 208.055 275.677,208.017 276.550,208.134 276.668 C 208.426 276.959,208.926 274.173,208.700 273.521 C 208.600 273.235,208.384 273.777,208.219 274.727 M225.656 273.800 C 225.656 274.240,225.811 274.960,226.000 275.400 L 226.344 276.200 226.344 275.400 C 226.344 274.960,226.189 274.240,226.000 273.800 L 225.656 273.000 225.656 273.800 M249.903 274.000 C 249.742 274.550,249.620 275.450,249.631 276.000 L 249.651 277.000 250.044 276.015 C 250.260 275.474,250.382 274.574,250.316 274.015 L 250.195 273.000 249.903 274.000 M358.781 273.884 C 359.290 274.930,361.637 276.801,362.438 276.799 C 362.747 276.798,362.402 276.432,361.670 275.986 C 360.939 275.541,359.893 274.686,359.346 274.088 C 358.516 273.179,358.423 273.146,358.781 273.884 M190.520 276.000 C 190.520 277.210,190.595 277.705,190.687 277.100 C 190.778 276.495,190.778 275.505,190.687 274.900 C 190.595 274.295,190.520 274.790,190.520 276.000 M321.057 275.500 C 320.682 277.770,320.750 279.556,321.250 280.526 C 321.958 281.901,323.280 283.200,323.970 283.199 C 324.324 283.198,324.041 282.856,323.325 282.419 C 321.730 281.447,321.139 279.505,321.470 276.331 C 321.741 273.744,321.445 273.150,321.057 275.500 M348.012 274.400 C 348.012 274.730,348.187 275.270,348.400 275.600 C 348.745 276.133,348.788 276.133,348.788 275.600 C 348.788 275.270,348.613 274.730,348.400 274.400 C 348.055 273.867,348.012 273.867,348.012 274.400 M172.269 275.080 C 171.218 278.061,175.611 283.274,179.096 283.181 C 179.483 283.171,178.967 282.837,177.950 282.439 C 174.267 280.998,173.101 279.634,172.791 276.400 C 172.628 274.710,172.507 274.404,172.269 275.080 M305.057 275.946 C 304.365 279.467,306.640 280.097,310.209 277.373 C 312.430 275.677,312.885 275.818,311.413 277.747 C 310.170 279.377,308.126 281.036,305.827 282.282 C 304.932 282.767,304.408 283.172,304.662 283.182 C 306.494 283.254,312.800 277.711,312.800 276.030 C 312.800 274.938,312.724 274.958,310.517 276.643 C 306.855 279.438,305.699 279.351,305.520 276.265 L 305.400 274.200 305.057 275.946 M198.063 276.564 C 196.894 278.767,195.959 279.652,193.189 281.179 C 191.985 281.843,191.220 282.389,191.488 282.393 C 193.656 282.425,199.652 276.755,199.124 275.172 C 199.056 274.967,198.578 275.593,198.063 276.564 M260.174 276.631 C 259.840 278.859,260.358 280.143,261.990 281.136 C 262.654 281.539,263.078 281.989,262.932 282.135 C 262.786 282.281,262.847 282.400,263.067 282.400 C 264.076 282.400,263.875 281.789,262.577 280.907 C 260.859 279.739,260.390 278.639,260.683 276.455 C 260.805 275.545,260.803 274.800,260.677 274.800 C 260.552 274.800,260.325 275.624,260.174 276.631 M336.957 275.725 C 336.321 276.259,335.170 277.079,334.400 277.546 C 333.630 278.014,333.270 278.396,333.600 278.395 C 333.930 278.393,334.990 277.764,335.956 276.996 C 337.734 275.583,338.400 275.302,338.400 275.965 C 338.400 276.825,333.391 281.339,331.465 282.215 C 329.204 283.243,329.428 283.565,331.735 282.601 C 333.422 281.896,338.251 277.500,338.622 276.330 C 339.056 274.963,338.227 274.661,336.957 275.725 M87.994 276.337 C 85.494 278.382,83.138 279.073,82.665 277.900 C 82.513 277.523,82.455 277.520,82.432 277.886 C 82.320 279.605,85.450 279.084,87.969 276.965 C 88.664 276.380,89.334 276.001,89.457 276.124 C 89.840 276.507,87.622 279.097,85.574 280.659 C 83.502 282.239,83.130 283.074,85.133 281.647 C 86.826 280.442,90.459 276.377,90.292 275.875 C 90.023 275.070,89.384 275.199,87.994 276.337 M114.789 277.011 C 113.811 278.008,111.980 279.574,110.719 280.492 C 109.459 281.410,108.506 282.240,108.603 282.336 C 108.826 282.559,111.100 280.867,114.300 278.097 L 116.800 275.932 116.828 277.066 C 116.888 279.482,117.543 279.864,117.572 277.500 C 117.607 274.647,117.183 274.572,114.789 277.011 M294.562 276.061 C 291.252 279.801,286.186 282.832,282.600 283.219 L 280.200 283.478 282.436 283.539 C 285.419 283.620,288.620 282.018,292.327 278.585 C 295.607 275.548,295.508 275.580,295.709 277.500 C 295.852 278.874,295.871 278.841,295.933 277.100 C 296.007 275.002,295.703 274.772,294.562 276.061 M210.070 277.211 C 209.987 279.360,210.665 280.486,212.484 281.222 C 213.208 281.515,213.932 281.945,214.094 282.177 C 214.285 282.453,214.390 282.419,214.394 282.080 C 214.397 281.793,213.811 281.313,213.092 281.013 C 211.198 280.221,210.477 279.236,210.298 277.199 L 210.140 275.400 210.070 277.211 M330.834 276.126 C 330.788 277.109,331.517 278.401,332.114 278.394 C 332.471 278.389,332.463 278.301,332.083 278.060 C 331.799 277.879,331.409 277.207,331.217 276.566 C 331.013 275.883,330.855 275.701,330.834 276.126 M148.834 277.200 C 148.822 277.750,148.987 278.470,149.200 278.800 C 149.709 279.587,149.709 278.184,149.200 277.000 C 148.885 276.267,148.854 276.284,148.834 277.200 M226.456 277.000 C 226.456 277.440,226.611 278.160,226.800 278.600 L 227.144 279.400 227.144 278.600 C 227.144 278.160,226.989 277.440,226.800 277.000 L 226.456 276.200 226.456 277.000 M348.824 276.509 C 348.697 278.162,354.598 283.241,356.562 283.170 C 357.232 283.145,357.159 283.045,356.200 282.669 C 353.279 281.523,350.952 279.595,349.324 276.968 C 349.061 276.546,348.836 276.339,348.824 276.509 M72.501 278.200 C 72.505 279.080,72.587 279.393,72.683 278.895 C 72.779 278.398,72.775 277.678,72.675 277.295 C 72.575 276.913,72.496 277.320,72.501 278.200 M139.241 277.320 C 139.110 279.632,143.269 283.265,145.949 283.179 C 146.307 283.168,145.657 282.796,144.504 282.353 C 142.045 281.408,140.308 279.808,139.710 277.938 C 139.474 277.202,139.263 276.924,139.241 277.320 M274.428 277.476 C 274.413 277.958,274.580 278.464,274.800 278.600 C 275.273 278.892,275.273 278.501,274.800 277.400 C 274.469 276.629,274.455 276.631,274.428 277.476 M364.534 277.189 C 365.378 277.352,366.638 277.349,367.334 277.183 C 368.285 276.957,367.903 276.883,365.800 276.887 C 363.463 276.891,363.254 276.941,364.534 277.189 M207.632 277.469 C 207.567 278.431,205.524 280.362,204.087 280.822 C 202.378 281.368,201.726 281.859,202.148 282.282 C 202.311 282.444,202.569 282.402,202.722 282.188 C 202.875 281.975,203.848 281.373,204.885 280.852 C 206.824 279.877,208.199 278.316,207.857 277.476 C 207.712 277.119,207.655 277.117,207.632 277.469 M248.989 278.070 C 248.585 279.394,247.618 280.382,246.108 281.013 C 244.883 281.525,244.310 282.400,245.200 282.400 C 245.420 282.400,245.600 282.232,245.600 282.027 C 245.600 281.822,245.966 281.538,246.413 281.396 C 247.972 280.901,250.149 278.016,249.473 277.340 C 249.363 277.230,249.145 277.558,248.989 278.070 M63.654 278.284 C 63.625 278.771,63.206 279.536,62.725 279.984 C 62.243 280.433,62.035 280.800,62.263 280.800 C 63.059 280.800,64.065 279.271,63.887 278.333 C 63.714 277.425,63.707 277.424,63.654 278.284 M96.029 278.000 C 96.018 280.584,100.397 283.635,103.985 283.543 L 106.200 283.486 103.600 283.216 C 100.034 282.844,98.284 281.679,96.664 278.600 C 96.316 277.940,96.031 277.670,96.029 278.000 M182.430 278.800 C 182.387 279.762,183.870 281.905,184.779 282.193 C 186.562 282.759,190.440 280.321,190.384 278.669 C 190.375 278.411,190.113 278.669,189.801 279.243 C 188.209 282.172,184.390 282.552,183.212 279.900 C 182.796 278.965,182.444 278.470,182.430 278.800 M275.204 279.466 C 275.198 280.135,278.791 283.203,279.556 283.182 C 279.910 283.173,279.541 282.817,278.736 282.391 C 277.931 281.966,276.808 281.029,276.240 280.309 C 275.673 279.589,275.207 279.210,275.204 279.466 M296.016 279.706 C 295.968 281.857,300.207 284.200,303.000 283.567 C 303.957 283.350,303.754 283.285,302.000 283.246 C 299.335 283.187,297.389 282.124,296.593 280.292 C 296.262 279.531,296.025 279.290,296.016 279.706 M227.200 280.257 C 227.200 280.691,227.468 281.396,227.795 281.824 C 228.335 282.529,228.348 282.472,227.935 281.200 C 227.372 279.464,227.200 279.243,227.200 280.257 M72.816 280.445 C 72.770 282.313,76.492 284.058,79.585 283.619 C 80.742 283.455,80.525 283.379,78.400 283.202 C 75.402 282.952,74.253 282.418,73.424 280.890 C 73.050 280.203,72.826 280.038,72.816 280.445 M117.600 280.377 C 117.600 281.025,119.802 283.200,120.458 283.200 C 120.744 283.200,120.589 282.928,120.114 282.595 C 119.639 282.262,118.879 281.518,118.425 280.941 C 117.971 280.364,117.600 280.110,117.600 280.377 M59.400 281.600 C 58.520 282.007,58.003 282.354,58.251 282.370 C 58.810 282.407,61.600 281.261,61.600 280.995 C 61.600 280.677,61.091 280.817,59.400 281.600 M55.800 282.800 L 55.000 283.144 55.800 283.166 C 56.240 283.178,56.870 283.013,57.200 282.800 C 57.995 282.286,56.996 282.286,55.800 282.800 M81.800 282.800 C 81.029 283.131,81.031 283.145,81.876 283.172 C 82.358 283.187,82.864 283.020,83.000 282.800 C 83.292 282.327,82.901 282.327,81.800 282.800 M155.600 282.800 L 154.600 283.120 155.600 283.154 C 156.150 283.173,156.870 283.013,157.200 282.800 C 157.964 282.306,157.142 282.306,155.600 282.800 M188.800 282.800 L 187.800 283.120 188.800 283.154 C 189.350 283.173,190.070 283.013,190.400 282.800 C 191.164 282.306,190.342 282.306,188.800 282.800 M43.638 283.651 C 44.167 283.799,46.490 283.920,48.800 283.920 C 51.110 283.920,53.433 283.799,53.962 283.651 C 54.491 283.503,52.168 283.382,48.800 283.382 C 45.432 283.382,43.109 283.503,43.638 283.651 M148.385 283.588 C 149.367 283.747,151.167 283.748,152.385 283.591 C 154.272 283.347,154.007 283.305,150.600 283.303 C 147.589 283.301,147.042 283.371,148.385 283.588 M181.585 283.588 C 182.567 283.747,184.367 283.748,185.585 283.591 C 187.472 283.347,187.207 283.305,183.800 283.303 C 180.789 283.301,180.242 283.371,181.585 283.588 M324.918 283.451 C 325.218 283.751,328.814 283.719,329.120 283.414 C 329.237 283.296,328.283 283.200,327.000 283.200 C 325.717 283.200,324.780 283.313,324.918 283.451 M358.866 283.577 C 359.672 283.734,361.112 283.736,362.066 283.582 C 363.486 283.351,363.220 283.299,360.600 283.296 C 358.229 283.293,357.780 283.366,358.866 283.577 " stroke="none" fill="#58aea4" fill-rule="evenodd"></path></g></svg>